<svg width="552" height="607" viewBox="0 0 552 607" fill="none" xmlns="http://www.w3.org/2000/svg">
<g clip-path="url(#clip0)">
<path d="M411.109 342.59C410.745 342.111 410.839 341.967 411.634 341.711C412.177 341.546 412.576 341.286 412.485 341.167C412.433 341.06 410.461 339.098 408.069 336.814C401.104 330.124 394.649 325.023 386.743 319.906C377.617 313.971 371.102 310.836 367.053 310.408C365.734 310.262 365.669 310.195 366.28 309.832C368.354 308.561 344.796 301.436 334.759 300.308L332.887 300.102L330.094 294.633C325.725 285.926 318.828 275.461 317.872 275.926C317.288 276.209 316.534 275.066 316.976 274.556C317.27 274.216 313.045 269.312 308.304 264.494C299.932 255.993 288.426 247.998 274.597 241.099C269.435 238.521 266.136 237.204 257.506 234.178L246.786 230.429L244.934 225.815C241.425 217.051 234.955 204.835 230.21 197.985C229.157 196.429 228.974 196.321 228.926 197.099C228.816 198.695 227.639 197.626 227.684 195.963C227.698 194.644 227.18 193.714 224.888 190.758C221.007 185.752 211.837 176.621 206.443 172.417C202.161 169.083 194.597 163.996 191.485 162.391C190.396 161.837 190.106 161.781 190.139 162.323C190.135 162.719 189.87 162.848 189.357 162.67C188.37 162.33 188.339 161.524 188.988 154.021C190.13 140.108 188.427 129.054 183.571 119.074C181.181 114.23 177.736 109.242 174.445 105.852C173.622 105.038 172.957 104.278 172.891 104.211C172.723 103.932 179.194 97.7345 183.272 94.2424C186.858 91.1539 187.349 90.8822 188.376 91.2368C189.086 91.4823 189.588 91.4351 189.711 91.0801C189.82 90.7645 190.258 90.5186 190.68 90.576C191.076 90.5804 190.827 90.4061 190.131 90.1212L188.881 89.6453L190.227 88.5647C191.918 87.2503 192.326 87.3473 191.794 88.8857C191.481 89.793 191.543 90.1237 192.175 90.3419C192.609 90.4919 193.178 90.3794 193.405 90.1048C193.672 89.8437 194.281 89.7449 194.794 89.9222C195.307 90.0995 196.219 90.0172 196.803 89.7333C197.387 89.4494 198.22 89.3399 198.654 89.4899C199.088 89.6399 199.498 89.6049 199.58 89.3682C199.648 89.171 200.347 89.1919 201.097 89.4511C201.847 89.7102 202.533 89.7706 202.615 89.5339C202.683 89.3367 203.619 89.4395 204.685 89.8077C205.79 90.1896 206.766 90.306 206.94 90.0572C207.315 89.6126 216.841 92.7279 221.545 94.8394C224.725 96.2475 231.192 100.16 231.593 100.917C231.722 101.183 232.299 101.559 232.852 101.75C233.404 101.941 234.007 102.37 234.188 102.741C234.395 103.166 234.671 103.261 235.175 103.082C236.249 102.659 243.85 103.033 249.718 103.825C258.565 104.939 271.157 109.026 279.007 113.284C290.074 119.228 301.884 129.668 311.103 141.598L315.362 147.044L318.695 147.754C324.215 148.911 336.807 152.997 342.8 155.598C348.49 158.051 353.558 160.773 359.617 164.589C371.236 171.873 382.832 183.828 391.192 197.094C394.956 203.076 401.607 216.811 401.253 217.837C401.034 218.468 401.27 218.682 403.283 219.378C406.953 220.646 415.042 224.722 420.224 227.882C439.519 239.672 452.133 256.351 458.468 278.544C459.219 281.1 459.556 281.658 460.503 281.985C461.648 282.381 461.687 282.395 460.795 284.338C460.078 285.901 460.007 286.362 460.466 286.697C461.343 287.354 468.029 294.213 469.738 296.172C472.137 298.944 474.684 302.695 476.637 306.505C478.576 310.354 480.715 316.437 480.388 317.383C480.292 317.659 480.355 317.99 480.552 318.058C480.868 318.167 481.225 324.164 481.044 326.221C480.544 330.994 479.78 333.203 476.873 338.292C475.284 341.099 473.79 343.762 473.522 344.155C473.038 344.915 472.748 344.859 463.998 342.056C456.879 339.772 454.074 339.068 450.725 338.661C438.896 337.223 427.869 338.579 418.424 342.645C415.89 343.712 415.083 343.875 414.309 343.431C413.797 343.121 412.967 342.967 412.465 343.014C411.896 343.127 411.422 342.963 411.109 342.59Z" fill="#832611"/>
<path d="M330.104 298.566C329.885 298.049 330.006 297.826 330.563 297.621C331.081 297.403 331.304 297.524 331.509 298.081C331.728 298.598 331.606 298.821 331.05 299.026C330.532 299.244 330.309 299.123 330.104 298.566Z" fill="#832611"/>
<path d="M461.402 273.376C464.952 261.444 467.697 249.41 468.861 240.671C469.924 232.737 469.938 232.697 471.595 233.27L472.937 233.734L472.218 239.138C470.544 252.292 467.99 263.774 464.323 274.385L462.251 280.381L460.909 279.918L459.607 279.468L461.402 273.376Z" fill="#832611"/>
<path d="M317.585 142.91C318.021 141.648 319.436 140.238 327.836 132.808C333.195 128.036 344.195 119.473 344.669 119.637C344.866 119.705 345.106 119.523 345.215 119.207C345.31 118.931 345.976 118.411 346.68 118.036C347.344 117.647 348.156 117.089 348.397 116.775C348.677 116.474 349.01 116.28 349.246 116.362C349.444 116.43 349.803 116.157 350.072 115.764C350.353 115.331 350.897 115.166 351.37 115.329C352.002 115.547 352.281 115.379 352.54 114.629C352.785 113.919 353.078 113.711 353.67 113.916C354.262 114.121 354.555 113.913 354.8 113.203C355.1 112.335 355.299 112.271 356.522 112.694C357.824 113.144 357.876 113.25 357.426 114.552C357.044 115.656 356.791 115.878 356.16 115.66C355.568 115.455 355.275 115.663 355.03 116.373C354.784 117.083 354.492 117.291 353.9 117.087C353.308 116.882 353.015 117.09 352.769 117.8C352.579 118.352 352.112 118.809 351.755 118.818C351.385 118.867 350.986 119.126 350.89 119.403C350.781 119.718 350.382 119.978 350.026 119.987C349.655 120.036 349.27 120.256 349.175 120.532C349.093 120.769 348.413 121.329 347.656 121.729C346.899 122.13 346.274 122.532 346.261 122.572C346.234 122.651 343.409 124.942 340.013 127.611C336.564 130.305 330.634 135.32 326.754 138.749C319.914 144.863 319.702 144.967 318.465 144.583C317.281 144.174 317.203 144.015 317.585 142.91Z" fill="#832611"/>
<path d="M195.165 84.884C196.923 83.5044 204.265 78.6229 204.702 78.509C204.94 78.4588 204.907 79.0656 204.648 79.8151C204.307 80.8013 203.999 81.1807 203.565 81.0307C203.25 80.9216 202.851 81.1811 202.701 81.615C202.551 82.049 202.152 82.3085 201.836 82.1994C201.52 82.0903 201.121 82.3499 200.971 82.7838C200.822 83.2177 200.541 83.5182 200.304 83.4364C200.107 83.3682 199.814 83.5761 199.705 83.8917C199.596 84.2073 199.343 84.4288 199.106 84.347C198.909 84.2788 198.616 84.4868 198.507 84.8023C198.398 85.1179 198.026 85.2986 197.71 85.1895C197.395 85.0804 196.996 85.3399 196.846 85.7738C196.628 86.405 196.297 86.4673 195.35 86.14L194.126 85.7172L195.165 84.884Z" fill="#832611"/>
<path d="M397.437 99.7642L397.887 98.4625L403.062 98.5728C407.734 98.7303 413.075 99.3837 416.696 100.282C418.395 100.736 421.799 103.414 421.553 104.124C421.444 104.44 420.823 104.446 419.837 104.105C417.035 103.137 408.729 101.988 403.857 101.895C401.23 101.826 398.605 101.625 398.053 101.434C397.105 101.107 397.041 100.908 397.437 99.7642Z" fill="#832611"/>
<path d="M270.685 56.4467C270.899 56.2115 271.68 55.9958 272.446 55.9515C273.847 55.8615 273.873 55.9146 273.546 56.8613C273.246 57.7291 273.047 57.7929 271.784 57.3565C270.877 57.0428 270.497 56.735 270.685 56.4467Z" fill="#832611"/>
<path d="M276.102 56.111C276.584 55.4827 284.404 55.2265 293.036 55.56C302.434 55.8492 303.436 56.0188 303.095 57.0049C302.89 57.5967 302.321 57.7091 300.593 57.5975C299.353 57.4781 294.733 57.2948 290.39 57.2069C285.994 57.1449 282.127 56.9567 281.772 56.834C281.417 56.7112 281.072 56.813 281.004 57.0102C280.922 57.2469 280.434 57.2547 279.881 57.0637C279.329 56.8728 278.826 56.92 278.758 57.1172C278.677 57.3539 277.991 57.2935 277.201 57.0207C276.254 56.6934 275.914 56.3993 276.102 56.111Z" fill="#832611"/>
<path d="M138.649 475.715L44.7362 399.5L41.6304 381.514C39.8894 371.595 38.5912 363.462 38.6579 363.397C38.7641 363.346 79.9045 396.551 130.115 437.13L221.36 510.966L227.12 531.371C230.299 542.626 232.814 551.841 232.721 551.853C232.655 551.918 190.298 517.63 138.649 475.715Z" fill="#F9603E"/>
<path d="M227.559 531.125C224.342 519.724 221.579 510.335 221.356 510.214C221.158 510.146 218.749 508.297 216.066 506.09C211.458 502.422 210.284 501.089 212.099 501.716C212.889 501.989 215.102 503.637 215.295 504.101C215.359 504.3 216.197 504.943 217.207 505.601C218.177 506.245 219.027 506.981 219.091 507.179C219.141 507.417 219.77 507.9 220.544 508.344C221.279 508.774 221.906 509.388 221.915 509.745C221.925 510.101 222.225 510.382 222.621 510.386C223.07 510.365 223.213 510.591 223.077 510.985C222.954 511.34 223.056 511.685 223.253 511.753C223.49 511.835 223.566 512.126 223.457 512.442C223.348 512.757 223.515 513.168 223.777 513.435C224.051 513.663 224.205 514.113 224.082 514.468C223.973 514.784 224.075 515.128 224.272 515.196C224.509 515.278 224.572 515.609 224.463 515.924C224.354 516.24 224.455 516.584 224.653 516.652C224.89 516.734 224.952 517.065 224.843 517.38C224.734 517.696 224.836 518.04 225.033 518.108C225.27 518.19 225.305 518.6 225.155 519.034C225.005 519.468 225.159 519.918 225.474 520.027C225.79 520.136 225.971 520.508 225.862 520.824C225.753 521.139 225.855 521.483 226.052 521.552C226.289 521.634 226.351 521.964 226.242 522.28C226.133 522.595 226.235 522.94 226.432 523.008C226.669 523.09 226.745 523.381 226.636 523.697C226.527 524.012 226.694 524.423 226.955 524.69C227.23 524.917 227.384 525.368 227.261 525.723C227.152 526.039 227.254 526.383 227.451 526.451C227.688 526.533 227.751 526.864 227.641 527.179C227.532 527.495 227.634 527.839 227.832 527.907C228.068 527.989 228.131 528.32 228.022 528.635C227.913 528.951 228.015 529.295 228.212 529.363C228.449 529.445 228.484 529.855 228.334 530.289C228.184 530.723 228.338 531.173 228.653 531.282C228.969 531.391 229.15 531.763 229.041 532.079C228.932 532.394 229.034 532.738 229.231 532.807C229.468 532.888 229.53 533.219 229.421 533.535C229.312 533.85 229.414 534.195 229.611 534.263C229.848 534.345 229.924 534.636 229.815 534.951C229.706 535.267 229.873 535.678 230.134 535.945C230.409 536.172 230.563 536.623 230.44 536.978C230.331 537.293 230.433 537.638 230.63 537.706C230.867 537.788 230.929 538.119 230.82 538.434C230.711 538.75 230.813 539.094 231.011 539.162C231.247 539.244 231.31 539.575 231.201 539.89C231.092 540.206 231.194 540.55 231.391 540.618C231.628 540.7 231.663 541.11 231.513 541.544C231.363 541.978 231.516 542.428 231.832 542.537C232.148 542.646 232.329 543.018 232.22 543.333C232.111 543.649 232.213 543.993 232.41 544.062C232.647 544.143 232.709 544.474 232.6 544.79C232.491 545.105 232.593 545.45 232.79 545.518C233.027 545.6 233.103 545.891 232.994 546.206C232.885 546.522 233.052 546.933 233.313 547.2C233.588 547.427 233.742 547.878 233.619 548.233C233.51 548.548 233.612 548.893 233.809 548.961C234.046 549.043 234.108 549.373 233.999 549.689C233.89 550.005 233.992 550.349 234.189 550.417C234.426 550.499 234.461 550.909 234.311 551.342C234.162 551.776 233.881 552.077 233.723 552.022C233.526 551.954 230.762 542.565 227.559 531.125Z" fill="#F9603E"/>
<path d="M200.41 493.482C195.594 489.521 191.498 486.162 191.288 486.002C191.118 485.855 191.16 485.604 191.386 485.462C191.811 485.255 195.09 487.272 195.282 487.868C195.346 488.066 196.17 488.749 197.18 489.407C198.15 490.051 199.014 490.747 199.078 490.946C199.142 491.144 199.966 491.827 200.976 492.485C201.946 493.129 202.81 493.825 202.873 494.024C202.937 494.222 203.801 494.918 204.771 495.563C205.781 496.221 206.592 496.942 206.549 497.193C206.56 497.417 206.861 497.698 207.177 497.807C208.479 498.257 210.52 500.022 210.342 500.535C210.247 500.811 209.928 500.966 209.705 500.845C209.429 500.749 205.24 497.403 200.41 493.482Z" fill="#F9603E"/>
<path d="M188.25 483.671C187.177 482.814 187.172 482.062 188.237 482.43C189.539 482.88 190.52 483.749 190.329 484.301C190.111 484.933 189.545 484.781 188.25 483.671Z" fill="#F9603E"/>
<path d="M176.588 474.209C171.772 470.249 167.675 466.89 167.466 466.73C167.296 466.582 167.338 466.332 167.564 466.19C167.989 465.983 171.268 467.999 171.46 468.596C171.523 468.794 172.348 469.477 173.358 470.135C174.328 470.779 175.192 471.475 175.255 471.674C175.319 471.872 176.144 472.555 177.153 473.213C178.123 473.857 178.987 474.553 179.051 474.752C179.115 474.95 179.979 475.646 180.949 476.291C181.959 476.949 182.77 477.67 182.727 477.921C182.738 478.145 183.039 478.426 183.354 478.535C184.657 478.985 186.697 480.75 186.52 481.263C186.425 481.539 186.106 481.694 185.883 481.572C185.607 481.477 181.418 478.131 176.588 474.209Z" fill="#F9603E"/>
<path d="M156.561 458.016C151.745 454.055 147.649 450.696 147.439 450.535C147.269 450.388 147.311 450.138 147.537 449.995C147.962 449.789 151.241 451.805 151.433 452.401C151.497 452.6 152.321 453.283 153.331 453.941C154.301 454.585 155.165 455.281 155.229 455.48C155.293 455.678 156.117 456.361 157.127 457.019C158.097 457.663 158.961 458.359 159.025 458.558C159.088 458.756 159.952 459.452 160.922 460.097C161.932 460.755 162.743 461.477 162.701 461.727C162.711 461.951 163.012 462.232 163.328 462.341C164.63 462.791 166.671 464.556 166.493 465.069C166.398 465.345 166.079 465.5 165.856 465.379C165.58 465.283 161.391 461.937 156.561 458.016Z" fill="#F9603E"/>
<path d="M144.401 448.205C143.328 447.348 143.323 446.596 144.388 446.964C145.691 447.414 146.671 448.283 146.481 448.835C146.263 449.466 145.696 449.315 144.401 448.205Z" fill="#F9603E"/>
<path d="M132.739 438.743C127.923 434.782 123.826 431.424 123.617 431.263C123.447 431.116 123.489 430.866 123.715 430.723C124.14 430.517 127.419 432.533 127.61 433.129C127.674 433.328 128.499 434.01 129.508 434.668C130.478 435.312 131.342 436.008 131.406 436.207C131.47 436.406 132.295 437.088 133.304 437.746C134.274 438.391 135.138 439.087 135.202 439.285C135.266 439.484 136.13 440.18 137.1 440.824C138.11 441.482 138.92 442.204 138.878 442.454C138.889 442.679 139.19 442.959 139.505 443.069C140.808 443.519 142.848 445.284 142.671 445.796C142.576 446.073 142.257 446.227 142.034 446.106C141.758 446.011 137.569 442.664 132.739 438.743Z" fill="#F9603E"/>
<path d="M120.578 428.933C119.505 428.076 119.5 427.324 120.565 427.692C121.868 428.142 122.849 429.011 122.658 429.563C122.44 430.194 121.874 430.043 120.578 428.933Z" fill="#F9603E"/>
<path d="M108.916 419.471C104.1 415.51 100.004 412.152 99.7941 411.991C99.6241 411.844 99.6664 411.594 99.8924 411.451C100.317 411.245 103.596 413.261 103.788 413.857C103.852 414.056 104.676 414.738 105.686 415.396C106.656 416.04 107.52 416.736 107.584 416.935C107.648 417.134 108.472 417.816 109.482 418.474C110.452 419.118 111.316 419.814 111.38 420.013C111.443 420.212 112.307 420.908 113.278 421.552C114.287 422.21 115.098 422.932 115.056 423.182C115.066 423.407 115.367 423.687 115.683 423.796C116.985 424.246 119.026 426.012 118.849 426.524C118.753 426.8 118.435 426.955 118.211 426.834C117.935 426.739 113.746 423.392 108.916 419.471Z" fill="#F9603E"/>
<path d="M88.8899 403.277C84.0738 399.316 79.9773 395.958 79.7678 395.797C79.5977 395.65 79.64 395.4 79.8661 395.257C80.2908 395.051 83.57 397.067 83.7616 397.663C83.8255 397.862 84.6499 398.544 85.6595 399.202C86.6296 399.846 87.4935 400.542 87.5574 400.741C87.6213 400.94 88.4457 401.622 89.4553 402.28C90.4254 402.925 91.2893 403.62 91.3532 403.819C91.4171 404.018 92.281 404.714 93.2511 405.358C94.2607 406.016 95.0715 406.738 95.0292 406.988C95.04 407.213 95.3406 407.493 95.6563 407.602C96.9586 408.053 98.9993 409.818 98.8221 410.33C98.7267 410.607 98.4081 410.761 98.185 410.64C97.9087 410.545 93.7197 407.198 88.8899 403.277Z" fill="#F9603E"/>
<path d="M76.7293 393.467C75.6558 392.61 75.6508 391.858 76.7163 392.226C78.0186 392.676 78.9995 393.545 78.8087 394.097C78.5905 394.728 78.0244 394.577 76.7293 393.467Z" fill="#F9603E"/>
<path d="M157.718 420.792C140.539 412.338 131.402 394.035 135.182 375.426C136.076 370.921 138.861 363.759 141.186 359.97C145.69 352.562 152.313 346.947 160.39 343.644C167.327 340.831 173.211 340.038 181.072 340.812C184.331 341.099 185.66 341.47 191.63 343.754C197.574 345.985 198.901 346.62 201.666 348.591C213.209 356.863 219.197 368.427 219.293 382.723C219.31 388.425 217.051 397.006 213.881 403.241C205.718 419.319 187.93 427.965 169.864 424.636C166.239 424.002 160.476 422.143 157.718 420.792ZM165.305 401.777C168.731 397.617 168.798 397.552 169.903 397.934C170.495 398.139 171.899 398.933 173.053 399.685C176.291 401.82 178.384 402.411 180.939 401.792C183.626 401.175 186.837 398.532 187.6 396.322C188.159 394.705 187.727 391.994 186.761 390.954C186.343 390.501 186.297 389.867 186.597 388.999C186.992 387.855 187.258 387.726 189.108 387.614C190.548 387.538 191.622 387.114 192.714 386.255C196.43 383.3 196.307 380.078 192.293 375.203C190.833 373.418 190.757 373.126 191.234 371.746C191.52 370.917 192.394 369.541 193.182 368.665C193.971 367.79 194.588 366.899 194.498 366.647C194.259 365.549 193.29 366.053 191.576 368.199C189.382 370.841 189.012 370.889 186.1 369.088C184.277 367.973 184.186 367.853 184.595 366.669C184.84 365.959 185.713 364.583 186.596 363.563C187.586 362.36 188.044 361.547 187.863 361.175C187.475 360.379 186.917 360.716 184.937 363.122L183.09 365.399L181.393 364.812C180.446 364.485 178.741 363.41 177.59 362.394C175.118 360.215 175 360.174 174.542 360.987C174.286 361.473 174.609 362.07 175.733 363.165L177.328 364.688L176.632 366.7C175.964 368.632 174.357 370.727 165.636 381.004C161.516 385.895 162.061 385.598 159.182 384.47C157.038 383.641 156.524 383.596 155.819 384.103C155.046 384.675 155.124 384.834 157.963 387.229C160.75 389.649 160.906 389.835 160.602 391.099C160.435 391.836 159.588 393.266 158.731 394.338C157.233 396.117 156.933 396.985 157.644 397.23C158.038 397.367 161.619 393.526 161.905 392.697C162.164 391.948 164.242 392.71 166.1 394.236C167.37 395.292 167.511 395.65 167.17 396.637C166.966 397.228 165.986 398.656 165.023 399.781C163.352 401.676 163.255 402.084 164.28 402.571C164.424 402.665 164.864 402.287 165.305 401.777Z" fill="#F9603E"/>
<path d="M65.0672 384.005C60.251 380.044 56.1545 376.686 55.945 376.525C55.775 376.378 55.8173 376.128 56.0433 375.985C56.4681 375.778 59.7472 377.795 59.9388 378.391C60.0027 378.59 60.8272 379.272 61.8367 379.93C62.8069 380.574 63.6708 381.27 63.7347 381.469C63.7985 381.668 64.623 382.35 65.6326 383.008C66.6027 383.652 67.4666 384.348 67.5305 384.547C67.5943 384.746 68.4582 385.442 69.4284 386.086C70.4379 386.744 71.2488 387.466 71.2064 387.716C71.2172 387.941 71.5179 388.221 71.8336 388.33C73.1359 388.78 75.1766 390.545 74.9994 391.058C74.904 391.334 74.5854 391.489 74.3622 391.368C74.086 391.273 69.897 387.926 65.0672 384.005Z" fill="#F9603E"/>
<path d="M46.7548 369.242C42.8679 366.044 39.6354 363.382 39.5973 363.236C39.5457 363.13 39.6533 362.946 39.8657 362.843C40.251 362.623 43.5029 364.718 43.7081 365.275C43.772 365.474 44.5964 366.156 45.606 366.814C46.5761 367.458 47.4401 368.154 47.5039 368.353C47.5678 368.552 48.4317 369.248 49.4018 369.892C50.4114 370.55 51.2222 371.272 51.1799 371.522C51.1907 371.747 51.4913 372.027 51.807 372.136C53.1094 372.586 55.1501 374.351 54.9728 374.864C54.8774 375.14 54.5588 375.295 54.3357 375.174C54.0594 375.079 50.6554 372.401 46.7548 369.242Z" fill="#F9603E"/>
<path d="M380.707 305.412C380.761 305.254 383.451 304.373 388.405 302.95C390.366 302.391 391.079 302.372 391.958 302.897L393.06 303.543L389.708 304.548C387.138 305.338 386.041 305.445 385.2 305.066C384.254 304.607 384.056 304.67 383.756 305.538C383.442 306.445 383.243 306.509 382.02 306.086C381.27 305.827 380.666 305.53 380.707 305.412Z" fill="#F9603E"/>
<path d="M477.714 334.962C478.114 333.422 478.609 331.606 478.813 331.014C479.031 330.383 479.105 329.658 479.069 329.38C478.993 329.089 479.107 328.245 479.274 327.508C479.674 325.968 479.459 320.197 479.014 319.823C478.883 319.69 478.886 319.426 479.112 319.283C479.299 319.127 479.235 318.928 479.038 318.86C478.801 318.778 478.699 318.434 478.794 318.157C479.122 317.211 476.982 311.128 475.044 307.279C472.031 301.424 469.505 298.123 463.21 291.664C459.815 288.195 459.605 288.034 458.818 287.629C458.62 287.561 458.416 286.872 458.451 286.134C458.441 284.629 458.297 284.535 456.946 284.863C456.364 285.015 455.494 284.847 454.864 284.497L453.762 283.851L455.564 283.237C456.558 282.918 457.55 282.731 457.787 282.813C458.261 282.977 458.68 282.018 461.952 272.551C464.079 266.397 466.097 259.278 466.099 257.866C466.093 257.245 466.307 255.73 466.558 254.492C467.321 251.135 469.777 232.907 469.503 232.547C469.243 232.149 469.573 228.509 470.01 227.247C470.201 226.695 470.206 226.167 469.969 226.085C469.772 226.017 469.793 225.317 470.052 224.568C470.311 223.818 470.371 223.133 470.174 223.064C469.977 222.996 470.04 222.047 470.264 220.887C470.474 219.768 470.551 218.779 470.393 218.724C470.235 218.67 470.207 217.6 470.312 216.4C470.431 215.161 470.391 213.999 470.207 213.891C469.998 213.73 469.981 212.885 470.162 211.977C470.291 211.094 470.299 210.302 470.141 210.247C469.944 210.179 469.928 209.202 470.034 208.002C470.125 206.842 470.084 205.812 469.887 205.743C469.689 205.675 469.627 205.345 469.736 205.029C469.845 204.713 469.792 203.459 469.634 202.256C469.489 201.014 469.175 198.344 468.959 196.282C468.758 194.181 468.473 192.449 468.315 192.394C468.157 192.34 468.008 191.493 467.966 190.463C467.924 189.433 467.713 188.256 467.506 187.832C467.299 187.407 467.2 186.799 467.309 186.483C467.418 186.167 467.342 185.876 467.145 185.808C466.948 185.74 466.768 185.236 466.774 184.708C466.793 184.141 466.76 183.599 466.643 183.426C466.305 182.868 464.702 176.132 464.824 175.777C464.893 175.58 464.856 175.302 464.686 175.155C464.555 175.022 463.722 172.702 462.854 169.974C458.78 157.217 453.035 145.208 445.23 133.149C442.152 128.376 433.068 116.184 432.437 115.966C432.239 115.898 432.231 115.41 432.422 114.857C432.613 114.305 432.881 113.912 433 113.953C433.671 114.185 442.496 123.417 446.931 128.482C463.507 147.502 477.419 169.885 485.553 190.58C499.444 225.805 502.847 259.04 495.809 290.654C492.84 303.847 484.553 325.27 478.355 335.536L476.997 337.805L477.714 334.962ZM462.27 276.105C462.409 275.446 462.18 275.853 461.812 276.918C461.431 278.023 461.346 278.523 461.588 278.077C461.845 277.592 462.145 276.724 462.27 276.105ZM465.197 266.739C465.262 265.658 464.951 266.301 463.95 269.708C463.198 272.142 462.66 274.208 462.659 274.34C462.729 275.159 465.198 267.888 465.197 266.739ZM466.772 261.543C467.31 259.477 467.662 257.435 467.574 257.051C467.437 256.297 465.365 263.441 465.309 265.011C465.334 265.064 465.439 265.145 465.558 265.186C465.676 265.227 466.209 263.556 466.772 261.543ZM468.347 253.918C468.196 253.203 468.13 253.269 467.736 254.281C467.504 254.951 467.391 255.663 467.533 255.889C467.804 256.512 468.522 254.817 468.347 253.918ZM468.907 251.02C468.77 250.266 468.717 250.292 468.364 251.186C468.173 251.738 468.087 252.371 468.229 252.597C468.539 253.234 469.082 251.92 468.907 251.02Z" fill="#F9603E"/>
<path d="M406.538 297.779C406.725 297.623 408.222 297.125 409.891 296.642C412.05 296.019 413.147 295.912 413.949 296.278C414.894 296.737 415.093 296.673 415.393 295.805C415.706 294.898 415.905 294.834 417.168 295.271C418.904 295.871 418.598 296.118 414.823 297.198C412.664 297.821 411.567 297.927 410.766 297.562C409.82 297.103 409.621 297.167 409.321 298.034C409.008 298.942 408.809 299.006 407.546 298.569C406.757 298.296 406.298 297.961 406.538 297.779Z" fill="#F9603E"/>
<path d="M428.659 291.293C428.846 291.137 430.343 290.639 432.012 290.156C434.171 289.533 435.268 289.427 436.07 289.792C437.016 290.251 437.214 290.187 437.514 289.32C437.828 288.412 438.027 288.348 439.29 288.785C441.026 289.385 440.72 289.632 436.945 290.712C434.786 291.335 433.689 291.442 432.887 291.076C431.941 290.617 431.743 290.681 431.443 291.549C431.129 292.456 430.93 292.52 429.668 292.083C428.878 291.811 428.42 291.476 428.659 291.293Z" fill="#F9603E"/>
<path d="M188.638 161.937C188.489 161.09 188.556 161.025 189.343 161.43C189.79 161.672 190.141 162.191 190.083 162.613C189.953 163.628 188.797 163.14 188.638 161.937Z" fill="#F9603E"/>
<path d="M430.121 236.954C428.549 235.749 428.942 234.869 430.717 235.483C431.941 235.905 432.058 236.078 431.758 236.946C431.567 237.498 431.378 237.919 431.352 237.866C431.287 237.799 430.723 237.383 430.121 236.954Z" fill="#F9603E"/>
<path d="M384.685 190.739C383.409 189.062 383.571 188.72 385.268 189.307C386.531 189.743 386.622 189.863 386.24 190.968C386.009 191.638 385.792 192.137 385.766 192.084C385.687 192.057 385.192 191.444 384.685 190.739Z" fill="#F9603E"/>
<path d="M370.177 174.553C368.95 173.246 369.26 172.735 370.917 173.308C372.14 173.73 372.257 173.903 371.957 174.771C371.562 175.915 371.351 175.886 370.177 174.553Z" fill="#F9603E"/>
<path d="M320.018 148.653C320.236 148.022 320.567 147.959 321.672 148.341C323.251 148.887 323.279 149.956 321.722 149.86C320.086 149.736 319.732 149.481 320.018 148.653Z" fill="#F9603E"/>
<path d="M311.632 145.181C310.356 143.503 310.518 143.162 312.215 143.748C313.478 144.185 313.569 144.305 313.187 145.409C312.956 146.08 312.739 146.579 312.713 146.526C312.634 146.499 312.139 145.886 311.632 145.181Z" fill="#F9603E"/>
<path d="M338.644 155.222C337.689 154.406 338.581 153.743 339.963 154.221C341.068 154.602 341.289 154.856 341.071 155.487C340.798 156.276 339.691 156.158 338.644 155.222Z" fill="#F9603E"/>
<path d="M315.556 144.947C316.224 143.014 316.743 142.664 318.203 143.168C319.426 143.591 319.504 143.75 319.149 144.776C318.481 146.709 317.963 147.059 316.502 146.555C315.279 146.132 315.201 145.973 315.556 144.947Z" fill="#F9603E"/>
<path d="M181.242 96.4108C181.349 96.2272 181.924 95.5868 182.617 94.9873C183.271 94.3742 184.178 93.5395 184.539 93.1343C184.953 92.7033 185.444 92.4316 185.681 92.5134C185.878 92.5816 186.171 92.3737 186.294 92.0187C186.416 91.6636 187.523 90.6332 188.775 89.6967C190.04 88.7208 192.01 87.238 193.142 86.3926C194.287 85.5077 195.324 84.8065 195.522 84.8747C195.679 84.9292 195.893 84.694 196.002 84.3784C196.125 84.0234 196.524 83.7638 196.881 83.7546C197.251 83.7059 197.636 83.4858 197.745 83.1702C197.854 82.8547 198.133 82.6862 198.331 82.7544C198.567 82.8362 198.807 82.6541 198.916 82.3385C199.025 82.0229 199.292 81.7619 199.477 81.7375C199.649 81.7526 201.097 80.8844 202.654 79.8325C209.052 75.5082 219.691 69.779 226.495 66.9639C246.272 58.6964 266.064 55.115 289.444 55.5992C311.16 56.0386 330.062 58.9942 350.738 65.2562C369.374 70.9015 387.479 79.2337 401.952 88.8718C404.574 90.6169 406.802 92.0936 406.921 92.1345C407.039 92.1754 407.023 92.4788 406.914 92.7944C406.668 93.5045 406.984 93.6136 399.676 90.4701C395.34 88.5739 392.459 87.5783 388.705 86.6786C385.9 85.9743 377.792 83.6139 370.646 81.4093C360.539 78.3139 356.3 77.158 351.503 76.3391C341.671 74.6195 331.972 74.0497 321.984 74.5722C316.356 74.8793 302.048 76.7794 300.536 77.449C300.005 77.707 299.144 77.8955 298.63 77.8502C298.102 77.8443 297.598 78.0235 297.53 78.2207C297.462 78.418 297.131 78.4803 296.776 78.3575C296.421 78.2348 295.494 78.4885 294.737 78.8892C293.063 79.7682 288.905 80.9364 288.313 80.7318C288.076 80.65 287.824 80.7396 287.769 80.8973C287.701 81.0946 286.614 81.5577 285.342 81.9131C284.018 82.2944 281.328 83.1753 279.313 83.892C277.298 84.6088 275.365 85.0889 275.049 84.9798C274.733 84.8707 274.415 85.0256 274.319 85.3017C274.115 85.8934 269.327 87.8597 267.436 88.0895C266.696 88.1869 265.608 88.6499 265.101 89.0931C264.035 90.0052 260.613 91.4719 260.021 91.2674C259.508 91.0901 254.143 93.8287 253.966 94.3416C253.884 94.5782 252.317 95.4056 250.474 96.1375C248.617 96.9088 247.05 97.7362 246.955 98.0123C246.859 98.2884 245.982 98.7803 245.042 99.0734C244.087 99.406 243.21 99.8978 243.101 100.213C243.006 100.49 242.275 100.943 241.44 101.185C240.645 101.44 239.875 101.88 239.779 102.156C239.67 102.472 239.165 102.783 238.649 102.87C238.133 102.956 237.628 103.268 237.505 103.623C237.396 103.938 236.997 104.198 236.641 104.207C236.271 104.256 235.885 104.476 235.804 104.713C235.708 104.989 235.28 105.459 234.828 105.744C234.07 106.277 233.991 106.25 233.281 104.724C232.829 103.861 231.993 102.954 231.389 102.657C230.811 102.413 230.208 101.984 230.079 101.719C229.95 101.453 229.582 101.238 229.279 101.221C228.962 101.244 228.634 101.043 228.597 100.765C228.521 100.474 228.193 100.272 227.876 100.295C227.52 100.304 227.192 100.103 227.155 99.825C227.079 99.5337 226.751 99.3321 226.434 99.355C226.077 99.3642 225.749 99.1626 225.713 98.885C225.637 98.5937 225.309 98.3921 224.939 98.4408C224.542 98.4364 224.11 98.1544 223.876 97.8086C223.681 97.4764 223.17 97.1672 222.76 97.2022C222.364 97.1978 221.772 96.9932 221.471 96.7127C221.131 96.4185 220.094 95.8394 219.135 95.4196C218.162 95.0392 215.967 94.104 214.232 93.372C211.998 92.4231 210.984 92.1611 210.888 92.4372C210.779 92.7528 210.253 92.6149 209.281 92.1026C208.414 91.6705 207.69 91.4645 207.53 91.6739C207.383 91.8439 206.472 91.7941 205.472 91.4926C204.485 91.1517 203.496 91.0747 203.27 91.2174C203.069 91.4131 202.344 91.3391 201.726 91.0814C201.016 90.8359 200.356 90.8286 200.115 91.1427C199.901 91.3779 199.491 91.413 199.216 91.1855C198.942 90.9581 198.215 91.016 197.631 91.2999C196.993 91.6096 196.042 91.6782 195.489 91.4873C194.937 91.2963 194.527 91.3314 194.603 91.6226C194.679 91.9139 194.15 92.04 193.438 91.9265C192.713 91.8524 192.078 91.8982 192.01 92.0954C191.942 92.2926 191.611 92.3549 191.296 92.2458C190.98 92.1367 190.608 92.3174 190.499 92.633C190.39 92.9486 189.939 93.1019 189.505 92.9519C189.071 92.8019 188.634 92.9158 188.539 93.192C188.375 93.6653 181.857 96.9324 181.383 96.7687C181.265 96.7278 181.187 96.5685 181.242 96.4108Z" fill="#F9603E"/>
<path d="M304.076 135.725C302.916 134.352 303.131 133.985 304.788 134.558C306.012 134.981 306.129 135.154 305.829 136.022C305.434 137.166 305.183 137.123 304.076 135.725Z" fill="#F9603E"/>
<path d="M320.282 140.221C320.554 139.432 321.237 138.608 321.848 138.246C322.459 137.883 323.06 137.295 323.21 136.861C323.346 136.467 323.731 136.247 324.047 136.356C324.363 136.465 324.762 136.206 324.898 135.811C325.307 134.628 326.027 133.949 326.619 134.154C326.935 134.263 327.295 133.99 327.444 133.556C327.758 132.649 329.188 131.067 329.622 131.217C329.78 131.272 330.167 130.92 330.476 130.408C330.825 129.911 331.33 129.6 331.646 129.709C332.001 129.831 332.374 129.519 332.578 128.927C332.769 128.375 333.077 127.995 333.274 128.064C333.472 128.132 333.898 127.793 334.207 127.282C334.556 126.784 334.982 126.446 335.179 126.514C335.416 126.596 335.669 126.374 335.778 126.059C335.887 125.743 336.18 125.535 336.378 125.603C336.614 125.685 336.868 125.464 336.977 125.148C337.086 124.833 337.378 124.625 337.576 124.693C337.813 124.775 338.066 124.553 338.175 124.237C338.284 123.922 338.577 123.714 338.774 123.782C339.011 123.864 339.264 123.642 339.373 123.327C339.482 123.011 339.775 122.803 339.972 122.871C340.209 122.953 340.462 122.732 340.571 122.416C340.68 122.101 340.973 121.893 341.171 121.961C341.407 122.043 341.661 121.821 341.77 121.506C341.879 121.19 342.171 120.982 342.369 121.05C342.606 121.132 342.859 120.91 342.968 120.595C343.077 120.279 343.37 120.071 343.567 120.14C343.804 120.221 344.057 120 344.166 119.684C344.289 119.329 344.688 119.07 345.044 119.06C345.401 119.051 346.002 118.464 346.418 117.769C347.011 116.693 347.277 116.564 348.263 116.905C349.131 117.205 349.476 117.103 349.68 116.512C349.83 116.078 350.15 115.791 350.348 115.859C350.584 115.941 350.838 115.719 350.947 115.404C351.056 115.088 351.309 114.867 351.546 114.948C351.743 115.017 352.224 114.52 352.641 113.825C353.139 112.894 353.605 112.569 354.37 112.657C354.938 112.676 355.467 112.55 355.535 112.353C355.617 112.116 356.027 112.081 356.461 112.231C357.013 112.422 357.346 112.228 357.564 111.597C358 110.334 359.525 109.757 361.024 110.276C362.208 110.685 362.246 110.83 361.837 112.014C361.347 113.434 359.937 114.316 358.832 113.934C358.398 113.784 358.052 114.018 357.821 114.688C357.63 115.24 357.322 115.62 357.085 115.538C356.888 115.47 356.595 115.678 356.486 115.993C356.377 116.309 355.858 116.659 355.329 116.786C354.799 116.912 354.308 117.183 354.226 117.42C354.144 117.657 353.639 117.968 353.096 118.134C352.553 118.299 352.034 118.65 351.938 118.926C351.843 119.202 351.485 119.343 351.169 119.234C350.854 119.125 350.455 119.385 350.305 119.818C350.155 120.252 349.715 120.63 349.358 120.639C348.988 120.688 348.603 120.908 348.494 121.224C348.385 121.539 348.145 121.722 347.908 121.64C347.711 121.572 347.418 121.779 347.309 122.095C347.186 122.45 346.787 122.71 346.431 122.719C346.061 122.768 345.675 122.988 345.566 123.303C345.457 123.619 345.217 123.801 344.981 123.719C344.783 123.651 344.491 123.859 344.382 124.174C344.273 124.49 344.019 124.712 343.782 124.63C343.585 124.562 343.292 124.77 343.183 125.085C343.074 125.401 342.821 125.622 342.584 125.54C342.387 125.472 342.094 125.68 341.985 125.996C341.876 126.311 341.623 126.533 341.386 126.451C341.189 126.383 340.896 126.591 340.787 126.906C340.678 127.222 340.306 127.403 339.99 127.294C339.635 127.171 339.276 127.444 339.058 128.075C338.867 128.627 338.559 129.007 338.322 128.925C338.125 128.857 337.832 129.065 337.723 129.38C337.614 129.696 337.361 129.917 337.124 129.836C336.927 129.767 336.634 129.975 336.525 130.291C336.416 130.606 336.044 130.787 335.728 130.678C335.373 130.555 335.014 130.828 334.796 131.46C334.577 132.091 334.218 132.364 333.863 132.241C333.547 132.132 333.148 132.392 332.998 132.826C332.685 133.733 331.255 135.314 330.82 135.164C330.663 135.11 330.276 135.462 329.967 135.973C329.618 136.471 329.113 136.782 328.797 136.673C328.481 136.564 328.082 136.823 327.946 137.218C327.537 138.401 326.817 139.08 326.225 138.875C325.909 138.766 325.536 139.078 325.359 139.591C325.182 140.104 324.54 140.81 323.929 141.173C323.317 141.535 322.771 141.965 322.703 142.162C322.649 142.32 321.963 142.259 321.213 142C319.911 141.55 319.859 141.444 320.282 140.221ZM325.353 137.69C325.926 137.182 326.275 136.684 326.196 136.657C326.078 136.616 325.532 137.046 324.958 137.554C324.371 138.102 324.036 138.56 324.115 138.587C324.234 138.628 324.766 138.238 325.353 137.69ZM327.886 135.475C328.459 134.966 328.808 134.469 328.729 134.441C328.61 134.4 328.064 134.83 327.491 135.338C326.904 135.886 326.569 136.344 326.648 136.372C326.766 136.413 327.299 136.023 327.886 135.475ZM330.419 133.259C330.992 132.751 331.341 132.253 331.262 132.226C331.143 132.185 330.597 132.614 330.024 133.123C329.437 133.67 329.102 134.129 329.181 134.156C329.299 134.197 329.832 133.807 330.419 133.259ZM333.845 130.248C334.658 129.557 334.859 129.23 334.354 129.541C333.344 130.163 331.09 132.21 331.9 131.784C332.205 131.668 333.071 130.952 333.845 130.248ZM338.466 126.59L339.56 125.599L338.443 126.273C337.818 126.675 336.86 127.404 336.233 127.938L335.14 128.929L336.256 128.255C336.881 127.853 337.84 127.124 338.466 126.59Z" fill="#F9603E"/>
<path d="M388.344 100.508C388.726 99.4033 388.979 99.1817 389.611 99.3999C390.045 99.5499 390.454 99.5149 390.509 99.3571C390.686 98.8443 393.765 98.6277 395.028 99.0641C395.778 99.3233 396.28 99.2761 396.403 98.921C396.621 98.2899 398.867 98.1828 400.485 98.742C401.511 99.0966 401.588 99.2559 401.152 100.518C400.757 101.662 400.45 101.91 399.513 101.939C398.878 101.984 397.837 101.801 397.206 101.583C396.574 101.365 395.993 101.385 395.884 101.7C395.72 102.174 392.362 102.559 391.376 102.218C391.139 102.136 390.834 102.251 390.766 102.449C390.684 102.685 389.998 102.625 389.248 102.366C387.946 101.916 387.894 101.81 388.344 100.508Z" fill="#F9603E"/>
<path d="M404.46 99.895C404.787 98.9483 405.134 98.5825 405.529 98.7189C405.845 98.828 406.203 98.6868 406.312 98.3712C406.707 97.2273 417.204 99.7066 419.021 101.35C420.093 102.339 420.133 102.353 419.118 102.223C418.155 102.067 418.116 102.053 418.957 102.432C419.535 102.676 419.73 103.008 419.539 103.56C419.321 104.192 418.99 104.254 417.806 103.845C416.977 103.558 413.933 103.036 411.033 102.608C403.953 101.618 403.874 101.591 404.46 99.895Z" fill="#F9603E"/>
<ellipse rx="40.063" ry="40.0613" transform="matrix(0.776573 0.630028 -0.630353 0.776308 176.166 384.628)" fill="white"/>
<path fill-rule="evenodd" clip-rule="evenodd" d="M150.931 415.727C133.743 401.783 131.118 376.55 145.07 359.368C158.011 343.431 180.666 340.022 197.598 350.74L186.134 368.339L178.801 362.389C176.893 360.842 174.756 359.857 172.684 359.449C170.86 359.089 169.088 359.175 167.572 359.716C166.435 360.123 164.906 360.853 163.987 361.356C163.135 361.822 162.317 362.335 161.537 362.896L162.804 363.923C175.36 374.11 187.918 384.298 200.473 394.485C201.244 392.742 201.789 390.92 202.136 389.049C202.562 386.752 202.522 385.151 201.558 382.88C200.732 380.935 199.327 379.043 197.417 377.493L190.083 371.543L204.955 356.71C218.931 371.067 220.255 393.93 207.314 409.867C193.362 427.048 168.119 429.672 150.931 415.727ZM162.933 408.104C159.022 407.795 157.41 406.376 156.324 402.641C154.548 396.54 154.127 390.285 155.149 384.375C156.089 378.943 158.248 373.874 161.547 369.539L194.403 396.195C191.954 399.022 189.037 401.421 185.777 403.296C178.876 407.266 170.827 408.728 162.933 408.104Z" fill="#F9603E"/>
<path d="M227.595 531.402L221.797 510.852L269.787 453.162C296.223 421.408 317.882 395.421 317.949 395.355C318.307 395.214 328.963 435.327 328.681 435.76C327.902 436.992 233.841 552.063 233.644 551.995C233.526 551.954 230.814 542.671 227.595 531.402Z" fill="#D25033"/>
<path d="M221.329 509.012C221.652 508.461 222.132 507.965 222.331 507.901C222.569 507.851 223.065 507.184 223.496 506.449C223.94 505.675 224.448 505.1 224.645 505.168C224.882 505.25 225.149 504.989 225.299 504.555C225.585 503.727 234.671 492.648 235.214 492.482C235.413 492.418 235.909 491.751 236.339 491.016C236.783 490.243 237.291 489.667 237.449 489.722C237.646 489.79 238.129 489.162 238.586 488.349C239.005 487.522 239.566 486.921 239.763 486.989C240 487.071 240.28 486.77 240.417 486.376C240.703 485.548 247.514 477.215 248.057 477.05C248.256 476.986 248.752 476.318 249.183 475.584C249.627 474.81 250.135 474.235 250.293 474.289C250.49 474.357 250.972 473.729 251.43 472.916C251.848 472.089 252.37 471.474 252.567 471.543C252.764 471.611 253.247 470.983 253.704 470.169C254.123 469.342 254.684 468.741 254.881 468.81C255.118 468.892 255.398 468.591 255.535 468.197C255.821 467.368 262.632 459.036 263.175 458.87C263.374 458.806 263.87 458.139 264.3 457.404C264.745 456.631 265.253 456.055 265.41 456.11C265.608 456.178 266.09 455.55 266.548 454.737C266.966 453.91 267.488 453.295 267.685 453.363C267.882 453.432 268.364 452.803 268.822 451.99C269.241 451.163 269.802 450.562 269.999 450.63C270.236 450.712 270.516 450.412 270.653 450.017C270.939 449.189 277.75 440.856 278.293 440.691C278.492 440.627 278.988 439.959 279.418 439.225C279.863 438.451 280.371 437.876 280.528 437.931C280.726 437.999 281.208 437.371 281.666 436.557C282.084 435.73 282.645 435.129 282.842 435.198C283.079 435.279 283.346 435.018 283.496 434.584C283.782 433.756 292.868 422.677 293.411 422.512C293.61 422.448 294.106 421.78 294.536 421.046C294.981 420.272 295.489 419.697 295.646 419.751C295.844 419.819 296.326 419.191 296.784 418.378C297.202 417.551 297.763 416.95 297.96 417.018C298.197 417.1 298.464 416.839 298.614 416.405C298.9 415.577 307.986 404.498 308.529 404.332C308.728 404.268 309.224 403.601 309.654 402.866C310.098 402.092 310.606 401.517 310.764 401.572C310.962 401.64 311.444 401.012 311.902 400.199C312.32 399.372 312.881 398.771 313.078 398.839C313.315 398.921 313.582 398.66 313.705 398.305C314.141 397.042 316.587 394.311 317.1 394.488C317.376 394.584 317.572 394.784 317.504 394.981C317.449 395.139 295.869 421.153 269.606 452.791C238.474 490.209 221.553 510.282 221.197 510.159C220.842 510.036 220.872 509.694 221.329 509.012Z" fill="#D25033"/>
<path d="M458.491 284.867C458.559 284.67 458.377 284.43 458.127 284.388C457.85 284.292 457.193 284.021 456.68 283.843C455.76 283.437 455.76 283.437 456.743 282.894C457.726 282.35 457.753 282.271 456.888 279.279C453.592 267.851 448.54 257.671 441.769 248.884C438.384 244.49 431.485 237.735 426.652 234.077C421.361 230.085 413.03 225.175 406.46 222.198C401.77 220.047 401.296 219.883 400.762 220.405C399.869 221.201 398.775 219.763 399.447 218.714C399.743 218.242 399.776 217.636 399.516 217.237C398.893 216.227 399.041 215.925 402.938 209.764C404.819 206.749 406.742 203.484 407.243 202.42C409.782 197.116 414.001 189.256 414.385 189.168C414.676 189.092 415.461 187.332 416.183 185.242C416.906 183.151 417.61 181.496 417.768 181.55C418.123 181.673 424.329 163.46 424.165 162.785C424.128 162.508 424.473 161.126 424.95 159.745C425.877 157.063 427.514 147.34 427.085 146.794C426.968 146.621 427.003 145.75 427.146 144.828C427.666 141.916 427.841 139.107 427.565 139.011C427.447 138.97 427.378 138.019 427.456 136.898C427.803 132.955 426.743 121.064 426.023 120.462C425.853 120.315 425.777 120.024 425.859 119.787C426.05 119.235 423.78 110.59 422.829 108.23C422.198 106.731 422.262 104.501 422.854 104.706C422.972 104.747 425.209 106.712 427.877 109.091C434.35 114.905 441.826 124.333 448.421 134.782C455.065 145.468 460.731 157.582 464.447 169.199C465.315 171.928 466.135 174.287 466.279 174.381C466.449 174.528 466.485 174.805 466.417 175.003C466.295 175.358 467.898 182.094 468.236 182.652C468.353 182.825 468.386 183.367 468.367 183.934C468.361 184.462 468.541 184.965 468.738 185.034C468.935 185.102 469.011 185.393 468.916 185.669C468.807 185.985 468.944 186.739 469.201 187.402C469.458 188.064 469.595 188.818 469.499 189.094C469.404 189.371 469.503 189.979 469.749 190.417C469.942 190.881 470.005 191.212 469.807 191.144C469.649 191.089 469.634 191.261 469.817 191.5C470.312 192.113 471.236 199.409 470.851 199.629C470.652 199.693 470.769 199.866 471.045 199.962C471.321 200.057 471.399 200.216 471.24 200.294C471.067 200.411 471.083 201.388 471.282 202.472C471.521 203.57 471.537 204.547 471.338 204.611C471.165 204.728 471.164 204.86 471.401 204.942C471.795 205.078 471.869 206.782 471.495 207.226C471.414 207.331 471.475 207.794 471.668 208.258C471.808 208.748 471.831 209.065 471.634 208.997C471.436 208.928 471.461 209.114 471.669 209.406C471.891 209.659 471.976 210.307 471.866 210.755C471.741 211.242 471.763 211.691 471.96 211.759C472.158 211.827 472.141 212.131 471.874 212.392C471.647 212.666 471.591 212.956 471.788 213.024C472.143 213.147 472.035 217.04 471.686 217.537C471.592 217.681 471.67 217.841 471.867 217.909C472.183 218.018 472.078 220.366 471.695 221.603C471.653 221.853 471.689 222.131 471.806 222.304C471.884 222.463 471.863 223.162 471.724 223.821C471.571 224.519 471.511 225.204 471.667 225.391C471.784 225.564 471.75 226.303 471.557 226.987C471.352 227.71 471.358 228.331 471.555 228.399C471.713 228.454 471.669 228.836 471.401 229.229C471.133 229.622 471.089 230.004 471.326 230.086C471.563 230.168 471.519 230.55 471.25 230.943C470.996 231.297 470.899 231.705 471.069 231.852C471.71 232.427 468.528 251.861 466.433 259.968C465.991 261.759 465.548 263.681 465.436 264.26C465.138 266.144 458.881 285.399 458.645 285.317C458.487 285.263 458.423 285.064 458.491 284.867Z" fill="#D25033"/>
<path d="M358.703 246.363C360.526 245.05 360.895 245.134 360.363 246.672C359.913 247.974 359.793 248.065 358.649 247.669L357.465 247.26L358.703 246.363Z" fill="#D25033"/>
<path d="M227.581 192.042C227.557 190.576 227.734 190.063 228.104 190.015C228.528 189.94 228.555 189.861 228.268 189.541C227.627 188.967 228.606 186.39 229.356 186.65C229.671 186.759 229.907 186.972 229.839 187.17C229.784 187.327 229.673 189.055 229.559 191.047L229.388 194.609L228.48 194.296C227.77 194.05 227.577 193.586 227.581 192.042Z" fill="#D25033"/>
<path d="M228.354 180.342C228.37 178.891 228.437 178.825 229.344 179.139C230.173 179.425 230.223 179.663 229.814 180.847C229.515 181.715 229.14 182.159 228.824 182.05C228.509 181.941 228.332 181.174 228.354 180.342Z" fill="#D25033"/>
<path d="M229.068 176.615C229.368 175.747 229.743 175.302 230.058 175.411C230.374 175.52 230.551 176.288 230.528 177.119C230.513 178.571 230.446 178.636 229.538 178.323C228.71 178.036 228.659 177.798 229.068 176.615Z" fill="#D25033"/>
<path d="M229.249 167.271C229.531 163.13 229.613 162.893 230.56 163.221C231.508 163.548 231.651 167.351 230.779 167.447C230.355 167.521 230.328 167.6 230.654 167.934C231.216 168.481 230.277 171.071 229.567 170.826C229.212 170.703 229.12 169.435 229.249 167.271Z" fill="#D25033"/>
<path d="M230.171 154.122C230.283 152.262 230.421 151.735 230.938 151.517C232.093 150.988 232.313 151.374 232.155 153.748C232.043 155.608 231.905 156.134 231.388 156.353C230.233 156.881 230.013 156.496 230.171 154.122Z" fill="#D25033"/>
<path d="M393.46 204.59L392.243 202.359L393.559 202.77C395.177 203.329 395.799 204.471 395.164 205.797L394.691 206.782L393.46 204.59Z" fill="#D25033"/>
<path d="M231.016 141.961C231.041 140.866 231.191 140.432 231.6 140.397C231.957 140.388 232.012 140.23 231.711 139.949C231.11 139.388 232.049 136.798 232.759 137.044C233.43 137.276 233.192 142.183 232.469 143.126C231.652 144.212 230.918 143.65 231.016 141.961Z" fill="#D25033"/>
<path d="M386.743 193.349L385.757 191.727L387.27 192.206C388.651 192.683 388.703 192.79 388.321 193.894C388.089 194.565 387.873 195.064 387.794 195.037C387.754 195.023 387.261 194.278 386.743 193.349Z" fill="#D25033"/>
<path d="M231.798 130.75C231.813 129.298 231.88 129.233 232.788 129.547C233.617 129.833 233.667 130.071 233.258 131.255C232.958 132.123 232.583 132.567 232.268 132.458C231.952 132.349 231.775 131.582 231.798 130.75Z" fill="#D25033"/>
<path d="M375.143 179.36C373.354 177.506 373.335 176.793 375.032 177.379C376.847 178.006 377.917 179.259 377.549 180.324C377.167 181.429 377.048 181.388 375.143 179.36Z" fill="#D25033"/>
<path d="M232.511 127.023C232.811 126.155 233.186 125.71 233.502 125.819C233.817 125.928 233.994 126.696 233.972 127.527C233.956 128.979 233.889 129.044 232.981 128.731C232.153 128.444 232.102 128.206 232.511 127.023Z" fill="#D25033"/>
<path d="M232.719 117.601C232.942 114.145 233.526 112.58 234.473 112.908C235.144 113.14 234.87 117.77 234.169 117.881C233.812 117.89 233.797 118.061 234.098 118.342C234.659 118.889 233.72 121.479 233.01 121.234C232.655 121.111 232.537 119.79 232.719 117.601Z" fill="#D25033"/>
<path d="M312.765 146.632C310.623 143.242 303.869 135.3 299.141 130.575C288.455 119.949 278.49 113.503 265.822 109.125C258.6 106.629 253.291 105.501 245.889 104.93C237.433 104.216 236.178 104.268 235.783 105.412C235.428 106.437 234.47 107.166 233.799 106.934C233.207 106.73 233.506 104.713 234.226 104.035C234.6 103.722 234.828 103.316 234.751 103.156C234.673 102.997 235.045 102.817 235.575 102.69C236.13 102.617 236.529 102.358 236.479 102.12C236.428 101.882 236.947 101.531 237.622 101.367C238.258 101.189 238.803 100.892 238.739 100.693C238.689 100.455 239.42 100.001 240.4 99.7214C241.354 99.3888 242.125 98.9486 242.061 98.7499C242.011 98.5117 242.888 98.0199 244.001 97.6099C245.062 97.2257 245.939 96.7338 245.914 96.5488C245.864 96.3106 247.47 95.4969 249.434 94.6739C251.45 93.8252 253.003 93.0373 252.926 92.878C252.784 92.5201 258.733 89.4975 259.246 89.6748C259.719 89.8384 263.87 88.1818 263.702 87.9028C263.468 87.557 266.109 86.306 266.661 86.4969C267.332 86.7288 273.34 84.3008 273.545 83.7091C273.64 83.433 273.959 83.2781 274.274 83.3872C274.59 83.4963 276.523 83.0162 278.538 82.2995C280.553 81.5827 283.243 80.7018 284.514 80.3463C285.799 79.9514 286.808 79.4611 286.744 79.2624C286.694 79.0242 286.946 78.9346 287.301 79.0574C288.09 79.3301 293.228 78.0145 293.127 77.5382C293.103 77.3531 293.819 77.0707 294.784 76.9626C295.71 76.8409 296.822 76.5629 297.18 76.4217C297.551 76.241 298.067 76.1543 298.265 76.2225C298.462 76.2907 299.124 76.1661 299.708 75.8822C301.26 75.2263 315.449 73.2852 321.209 72.9797C334.936 72.2479 351.607 73.9907 361.727 77.1787C376.806 81.9925 386.099 84.7621 386.536 84.6482C386.973 84.5342 389.29 85.1144 393.619 86.522C401.856 89.1479 406.764 91.948 416.377 99.2882L420.174 102.234L416.498 101.494C414.443 101.049 412.429 100.485 411.996 100.203C411.484 99.8938 411.102 99.8499 411.007 100.126C410.911 100.402 410.529 100.358 409.952 99.9823C409.44 99.673 408.992 99.5625 408.911 99.7992C408.829 100.036 408.486 100.006 408.093 99.7373C407.699 99.4689 407.237 99.5298 406.996 99.8439C406.407 100.524 406.21 100.456 411.299 101.198C416.809 101.999 421.05 103.023 420.886 103.496C420.818 103.693 419.539 103.56 418.064 103.227C413.283 102.105 408.141 101.388 407.555 101.804C406.983 102.18 401.267 102.103 400.122 101.708C399.767 101.585 399.436 101.647 399.382 101.805C399.259 102.16 396.617 102.263 395.71 101.949C395.354 101.826 394.945 101.861 394.798 102.031C394.69 102.215 393.221 102.502 391.555 102.721C387.059 103.331 381.419 104.694 376.714 106.292C371.957 107.915 359.482 113.716 359.25 114.387C359.155 114.663 358.252 115.102 357.219 115.407C356.132 115.738 354.87 116.45 354.376 116.986C353.828 117.548 353.003 118.146 352.513 118.285C352.023 118.425 351.544 118.789 351.448 119.065C351.353 119.342 350.755 119.665 350.107 119.75C349.459 119.835 348.875 120.119 348.794 120.356C348.712 120.593 348.138 121.101 347.513 121.503C346.889 121.905 346.274 122.532 346.138 122.927C346.015 123.282 345.669 123.515 345.433 123.434C344.801 123.215 341.659 125.662 341.331 126.609C341.209 126.964 340.955 127.185 340.719 127.103C340.521 127.035 340.229 127.243 340.119 127.559C340.01 127.874 339.639 128.055 339.323 127.946C338.968 127.823 338.608 128.096 338.39 128.728C338.199 129.28 337.892 129.659 337.655 129.577C337.457 129.509 337.165 129.717 337.056 130.033C336.947 130.348 336.693 130.57 336.457 130.488C336.259 130.42 335.98 130.588 335.871 130.904C335.762 131.219 335.348 131.65 334.937 131.817C334.552 132.038 333.939 132.532 333.657 132.965C333.335 133.384 332.844 133.655 332.568 133.56C331.936 133.342 329.39 135.597 329.008 136.701C328.858 137.135 328.485 137.448 328.169 137.339C327.577 137.134 326.857 137.813 326.448 138.996C326.312 139.391 325.913 139.65 325.597 139.541C325.281 139.432 324.735 139.861 324.291 140.635C323.9 141.383 323.259 142.089 322.926 142.283C322.594 142.477 321.567 143.403 320.659 144.37C319.725 145.284 318.845 146.039 318.687 145.985C318.529 145.93 317.956 146.439 317.447 147.146C316.831 147.904 316.086 148.398 315.373 148.416C313.907 148.44 313.907 148.44 312.765 146.632ZM328.151 135.346C333.403 130.758 344.112 122.271 349.195 118.684C350.073 118.06 350.086 118.021 348.976 118.167C348.381 118.226 347.81 118.471 347.768 118.721C347.739 118.932 344.542 121.536 340.668 124.437C333.705 129.758 329.601 133.197 323.731 138.675C318.729 143.306 321.099 141.563 328.151 135.346ZM356.242 114.142C357.054 113.584 357.054 113.584 356.033 113.982C355.476 114.187 354.775 114.298 354.538 114.216C354.301 114.134 354.101 114.33 354.11 114.686C354.12 115.043 353.918 115.371 353.627 115.447C353.349 115.483 353.043 115.73 352.974 115.928C352.838 116.322 354.206 115.559 356.242 114.142ZM399.927 100.227C400.404 100.127 400.299 100.047 399.56 100.012C398.966 99.9394 398.147 100.01 397.763 100.098C397.287 100.198 397.391 100.278 398.13 100.313C398.724 100.386 399.543 100.315 399.927 100.227Z" fill="#D25033"/>
<path d="M129.623 436.253C79.5962 395.782 38.6015 362.539 38.5498 362.432C38.4723 362.273 131.249 249.894 133.748 247.136L134.537 246.261L168.529 273.817C187.247 288.94 202.628 301.321 202.694 301.255C202.787 301.243 199.63 269.727 195.703 231.233C191.724 192.765 188.567 161.249 188.673 161.198C189.894 160.604 190.571 166.314 197.34 232.505L204.577 302.966L211.829 308.828C215.795 312.053 219.094 314.65 219.147 314.625C219.267 314.534 227.435 195.789 227.577 192.438C227.659 190.921 228.23 182.11 228.82 174.012C229.065 170.873 229.32 166.81 229.445 165.043C229.651 161.891 229.911 158.58 230.67 147.052C231.235 138.769 231.783 130.922 232.263 124.42C232.508 121.281 232.762 117.35 232.899 115.675C233.596 104.965 233.653 104.543 234.278 104.141C234.611 103.947 235.048 103.833 235.205 103.887C235.521 103.997 235.477 106.808 235.005 112.65C234.848 114.892 234.51 119.323 234.318 122.436C234.112 125.589 233.74 130.627 233.536 133.647C233.318 136.707 233.024 140.624 232.899 142.391C232.814 144.172 232.537 147.786 232.39 150.385C232.19 153.009 231.849 157.704 231.656 160.817C231.25 166.594 230.811 172.978 230.064 183.45C229.858 186.602 229.584 189.952 229.482 190.888C229.379 191.824 229.339 193.091 229.345 193.711C229.352 194.332 229.26 195.492 229.119 196.283C228.962 197.376 220.888 311.12 220.724 315.302C220.693 315.777 223.242 318.115 228.465 322.305C232.759 325.732 236.398 328.623 236.516 328.664C236.753 328.746 263.409 310.8 337.035 260.998C348.141 253.532 366.538 241.078 377.99 233.378C389.442 225.678 399.073 219.159 399.393 218.872C399.846 218.455 400.176 218.524 400.765 218.993C401.275 219.434 401.416 219.792 401.11 220.04C400.057 220.912 319.983 274.8 318.576 275.55C316.132 276.869 237.931 329.683 238.074 329.909C238.255 330.28 246.58 336.999 247.054 337.163C247.29 337.245 252.253 335.029 258.08 332.23C328.532 298.641 331.266 297.378 331.509 298.08C331.714 298.637 323.921 302.524 290.274 318.583C267.418 329.496 248.835 338.529 248.938 338.741C249.132 339.073 254.014 343.101 254.369 343.224C254.448 343.251 254.542 343.107 254.545 342.843C254.573 342.632 279.81 335.059 310.634 326.016C341.458 316.974 366.812 309.442 366.985 309.325C367.158 309.208 370.378 308.201 374.153 307.121C377.928 306.041 386.339 303.561 392.83 301.653C399.321 299.745 410.037 296.604 416.673 294.658C423.31 292.712 433.695 289.633 439.788 287.853C458.095 282.434 458.771 282.27 459.106 282.96C459.494 283.756 459.195 284.492 458.482 284.51C458.218 284.507 454.404 285.574 450.072 286.859C445.74 288.144 436.786 290.79 430.163 292.696C412.558 297.873 396.04 302.718 383.443 306.445C377.349 308.226 371.309 309.98 369.973 310.269C364.346 311.592 255.313 343.815 255.482 344.094C255.599 344.267 258.831 346.929 262.706 350.035L269.722 355.683L340.494 348.655C379.408 344.838 411.555 341.684 411.99 341.702C412.373 341.746 412.938 342.029 413.225 342.349C413.603 342.789 395.941 344.678 342.79 349.935C303.809 353.818 271.846 357.079 271.805 357.198C271.764 357.316 282.065 365.733 294.709 375.932C307.354 386.13 317.613 394.666 317.545 394.863C317.463 395.099 295.869 421.153 269.606 452.791C234.754 494.708 221.606 510.256 221.172 510.106C220.856 509.997 179.651 476.725 129.623 436.253ZM169.089 423.044C178.01 424.714 186.632 423.542 194.795 419.607C214.917 409.958 223.411 385.25 213.556 365.064C210.444 358.601 206.349 353.83 200.073 349.365C195.421 346.079 187.15 342.912 181.847 342.404C173.986 341.631 168.102 342.423 161.165 345.237C138.327 354.566 128.898 382.616 141.53 403.717C147.69 414.015 157.531 420.948 169.089 423.044Z" fill="#EC9784"/>
<path d="M396.639 210.988C393.452 204.102 388.591 195.798 384.843 190.793C381.849 186.8 376.034 179.977 374.426 178.494C373.694 177.8 372.426 176.611 371.589 175.836C365.279 169.681 352.889 161.558 342.955 157.065C338.107 154.86 322.764 149.911 318.047 148.987C315.517 148.51 314.438 148.182 314.547 147.866C314.779 147.195 329.125 134.446 336.012 128.833C354.051 114.092 369.26 105.747 384.178 102.336C395.297 99.8195 407.299 99.8605 418.283 102.464C421.747 103.308 422.939 104.205 424.188 107.11C425.284 109.564 427.684 118.342 427.452 119.013C427.357 119.289 427.446 119.541 427.604 119.595C428.315 119.841 429.669 134.969 429.032 135.279C428.833 135.343 428.911 135.502 429.187 135.597C429.503 135.707 429.525 136.024 429.259 136.285C429.031 136.559 429.015 136.863 429.251 136.944C429.488 137.026 429.525 137.304 429.297 137.579C429.07 137.853 429 138.182 429.131 138.316C429.471 138.61 429.166 143.583 428.754 143.882C428.567 144.038 428.631 144.237 428.907 144.332C429.144 144.414 429.153 144.771 428.871 145.203C428.603 145.596 428.52 145.965 428.678 146.019C429.112 146.169 427.594 155.801 426.634 159.091C426.209 160.577 425.89 162.013 425.94 162.251C426.028 162.635 424.155 168.567 422.454 173.234C422.154 174.102 421.254 176.705 420.436 179.072C419.632 181.399 418.859 183.252 418.662 183.184C418.504 183.129 417.707 184.797 416.945 186.874C416.169 188.99 415.358 190.697 415.134 190.708C414.962 190.693 414.652 191.336 414.472 192.113C414.291 192.889 413.994 193.493 413.797 193.425C413.6 193.357 413.303 193.961 413.123 194.738C412.943 195.514 412.645 196.118 412.448 196.05C412.251 195.982 411.942 196.493 411.842 197.165C411.689 197.863 411.433 198.349 411.236 198.281C411.038 198.212 410.729 198.724 410.629 199.396C410.476 200.094 410.22 200.579 409.984 200.497C409.747 200.416 409.559 200.704 409.541 201.139C409.494 201.785 405.324 208.867 400.944 215.788L399.748 217.715L396.639 210.988Z" fill="#EC9784"/>
</g>
<defs>
<clipPath id="clip0">
<rect width="410.448" height="500" fill="white" transform="translate(163.313) rotate(19.0642)"/>
</clipPath>
</defs>
</svg>
