<svg width="291" height="40" viewBox="0 0 291 40" fill="none" xmlns="http://www.w3.org/2000/svg">
<path d="M16.8 12.1845C16.8 6.50082 14.0563 1.60594 11.9667 0.0171992C11.9667 0.0171992 11.806 -0.0723072 11.8226 0.157053C11.6508 11.1384 6.09137 14.1144 3.0373 18.1199C-4.0131 27.3726 2.53846 37.5148 9.22303 39.3888C12.9478 40.4405 8.35836 37.5315 7.76529 31.3948C7.03918 23.9881 16.8 18.3268 16.8 12.1845V12.1845Z" fill="white"/>
<path d="M20.2562 15.627C20.2104 15.5987 20.1473 15.576 20.1072 15.6496C19.9868 17.0481 18.5424 20.0376 16.7082 22.7892C10.4891 32.1086 14.0314 36.6041 16.0261 39.0217C17.1839 40.4202 16.0261 39.0217 18.915 37.5892C22.4859 35.4491 24.8016 31.7462 25.1455 27.6357C25.713 21.0114 21.6892 16.8386 20.2562 15.627V15.627Z" fill="white"/>
<path d="M47.3879 34.8482H55.4519V39.6002H41.2319V14.3282H47.3879V34.8482Z" fill="white"/>
<path d="M61.4842 17.4242C60.4042 17.4242 59.5162 17.1122 58.8202 16.4882C58.1482 15.8402 57.8122 15.0482 57.8122 14.1122C57.8122 13.1522 58.1482 12.3602 58.8202 11.7362C59.5162 11.0882 60.4042 10.7642 61.4842 10.7642C62.5402 10.7642 63.4042 11.0882 64.0762 11.7362C64.7722 12.3602 65.1202 13.1522 65.1202 14.1122C65.1202 15.0482 64.7722 15.8402 64.0762 16.4882C63.4042 17.1122 62.5402 17.4242 61.4842 17.4242ZM64.5442 19.5122V39.6002H58.3882V19.5122H64.5442Z" fill="white"/>
<path d="M78.0414 33.8402L82.3974 19.5122H88.9494L81.8214 39.6002H74.2254L67.0974 19.5122H73.6854L78.0414 33.8402Z" fill="white"/>
<path d="M110.477 29.2322C110.477 29.8082 110.441 30.4082 110.369 31.0322H96.4365C96.5325 32.2802 96.9285 33.2402 97.6245 33.9122C98.3445 34.5602 99.2205 34.8842 100.253 34.8842C101.789 34.8842 102.857 34.2362 103.457 32.9402H110.009C109.673 34.2602 109.061 35.4482 108.173 36.5042C107.309 37.5602 106.217 38.3882 104.897 38.9882C103.577 39.5882 102.101 39.8882 100.469 39.8882C98.5005 39.8882 96.7485 39.4682 95.2125 38.6282C93.6765 37.7882 92.4765 36.5882 91.6125 35.0282C90.7485 33.4682 90.3165 31.6442 90.3165 29.5562C90.3165 27.4682 90.7365 25.6442 91.5765 24.0842C92.4405 22.5242 93.6405 21.3242 95.1765 20.4842C96.7125 19.6442 98.4765 19.2242 100.469 19.2242C102.413 19.2242 104.141 19.6322 105.653 20.4482C107.165 21.2642 108.341 22.4282 109.181 23.9402C110.045 25.4522 110.477 27.2162 110.477 29.2322ZM104.177 27.6122C104.177 26.5562 103.817 25.7162 103.097 25.0922C102.377 24.4682 101.477 24.1562 100.397 24.1562C99.3645 24.1562 98.4885 24.4562 97.7685 25.0562C97.0725 25.6562 96.6405 26.5082 96.4725 27.6122H104.177Z" fill="white"/>
<path d="M133.305 39.8522C130.929 39.8522 128.745 39.3002 126.753 38.1962C124.785 37.0922 123.213 35.5562 122.037 33.5882C120.885 31.5962 120.309 29.3642 120.309 26.8922C120.309 24.4202 120.885 22.2002 122.037 20.2322C123.213 18.2642 124.785 16.7282 126.753 15.6242C128.745 14.5202 130.929 13.9682 133.305 13.9682C135.681 13.9682 137.853 14.5202 139.821 15.6242C141.813 16.7282 143.373 18.2642 144.501 20.2322C145.653 22.2002 146.229 24.4202 146.229 26.8922C146.229 29.3642 145.653 31.5962 144.501 33.5882C143.349 35.5562 141.789 37.0922 139.821 38.1962C137.853 39.3002 135.681 39.8522 133.305 39.8522ZM133.305 34.2362C135.321 34.2362 136.929 33.5642 138.129 32.2202C139.353 30.8762 139.965 29.1002 139.965 26.8922C139.965 24.6602 139.353 22.8842 138.129 21.5642C136.929 20.2202 135.321 19.5482 133.305 19.5482C131.265 19.5482 129.633 20.2082 128.409 21.5282C127.209 22.8482 126.609 24.6362 126.609 26.8922C126.609 29.1242 127.209 30.9122 128.409 32.2562C129.633 33.5762 131.265 34.2362 133.305 34.2362Z" fill="white"/>
<path d="M161.894 19.2962C164.246 19.2962 166.118 20.0642 167.51 21.6002C168.926 23.1122 169.634 25.2002 169.634 27.8642V39.6002H163.514V28.6922C163.514 27.3482 163.166 26.3042 162.47 25.5602C161.774 24.8162 160.838 24.4442 159.662 24.4442C158.486 24.4442 157.55 24.8162 156.854 25.5602C156.158 26.3042 155.81 27.3482 155.81 28.6922V39.6002H149.654V19.5122H155.81V22.1762C156.434 21.2882 157.274 20.5922 158.33 20.0882C159.386 19.5602 160.574 19.2962 161.894 19.2962Z" fill="white"/>
<path d="M197.594 7.80602V20.2252H185.209V9.4097C185.209 8.52084 184.485 7.7998 183.593 7.7998H179.4V37.5299C179.4 38.4188 180.124 39.1398 181.016 39.1398H185.209V25.2724H197.601V37.5237C197.588 38.4126 198.3 39.1461 199.192 39.1585H199.217H203.41V9.4097C203.41 8.52084 202.686 7.7998 201.794 7.7998H197.594V7.80602ZM222.191 15.5758V30.475C222.203 31.8301 221.492 33.0919 220.319 33.788C217.037 35.6776 213.636 33.3094 213.636 30.2015V17.1857C213.636 16.2968 212.913 15.5758 212.02 15.5758H207.827V30.7361C207.84 35.6217 211.808 39.5749 216.713 39.5998H219.096C224.007 39.5874 227.987 35.6217 228 30.7299V17.1857C228 16.2968 227.276 15.5758 226.384 15.5758H222.191Z" fill="white"/>
<path d="M285.469 39.0002H289.8V17.8158C289.8 16.9238 289.052 16.2002 288.131 16.2002H283.8V37.3721C283.794 38.2641 284.535 38.994 285.456 39.0002H285.469Z" fill="white"/>
<path d="M289.762 11.947C290.446 10.2974 289.662 8.40613 288.012 7.72281C286.362 7.03948 284.47 7.82286 283.786 9.47251C283.103 11.1222 283.887 13.0134 285.537 13.6967C287.187 14.3801 289.079 13.5967 289.762 11.947Z" fill="white"/>
<path d="M242.7 15C236.596 15 231.6 19.434 231.6 25.6365V28.989C231.6 35.1915 236.596 39.6 242.7 39.6C248.804 39.6 253.8 35.1915 253.8 28.989V25.6365C253.806 19.434 248.81 15 242.7 15V15ZM247.946 29.3898C247.946 32.3224 245.586 34.2754 242.694 34.2754C239.801 34.2754 237.447 32.3224 237.447 29.3898V25.2039C237.447 22.2712 239.808 20.3182 242.694 20.3182C245.58 20.3182 247.946 22.2712 247.946 25.2039V29.3898Z" fill="white"/>
<path d="M269.106 15.5398C267.278 15.5274 265.475 15.938 263.829 16.7282V9.41127C263.829 8.52154 263.102 7.7998 262.207 7.7998H258V29.2217C258 35.288 262.996 39.5998 269.1 39.5998C275.204 39.5998 280.2 35.288 280.2 29.2217V25.9428C280.206 19.8765 275.223 15.5398 269.106 15.5398V15.5398ZM274.359 29.6137C274.359 32.482 271.999 34.3921 269.106 34.3921C266.22 34.3921 263.86 32.482 263.86 29.6137V25.5197C263.86 22.6514 266.22 20.7413 269.106 20.7413C271.992 20.7413 274.359 22.6514 274.359 25.5197V29.6137Z" fill="white"/>
</svg>
