<svg width="216" height="40" viewBox="0 0 216 40" fill="none" xmlns="http://www.w3.org/2000/svg">
<path d="M12.4444 9.02553C12.4444 4.81542 10.4121 1.18958 8.86423 0.0127401C8.86423 0.0127401 8.74516 -0.0535609 8.75748 0.116335C8.6302 8.25064 4.51213 10.4551 2.24986 13.4221C-2.97267 20.276 1.88034 27.7887 6.83188 29.1769C9.59094 29.9559 6.19138 27.8011 5.75206 23.2554C5.21421 17.769 12.4444 13.5754 12.4444 9.02553V9.02553Z" fill="#1B2143"/>
<path d="M15.0047 11.5756C14.9707 11.5546 14.924 11.5378 14.8943 11.5924C14.8051 12.6283 13.7352 14.8427 12.3765 16.8809C7.76977 23.7842 10.3937 27.1142 11.8713 28.905C12.7289 29.9409 11.8713 28.905 14.0112 27.8439C16.6563 26.2586 18.3716 23.5158 18.6264 20.471C19.0467 15.564 16.0662 12.4731 15.0047 11.5756V11.5756Z" fill="#2CA6E0"/>
<path d="M35.1022 25.8131H41.0756V29.3331H30.5422V10.6131H35.1022V25.8131Z" fill="black"/>
<path d="M45.5439 12.9065C44.7439 12.9065 44.0861 12.6754 43.5706 12.2131C43.0728 11.7331 42.8239 11.1465 42.8239 10.4531C42.8239 9.74203 43.0728 9.15537 43.5706 8.69314C44.0861 8.21314 44.7439 7.97314 45.5439 7.97314C46.3261 7.97314 46.9661 8.21314 47.4639 8.69314C47.9795 9.15537 48.2372 9.74203 48.2372 10.4531C48.2372 11.1465 47.9795 11.7331 47.4639 12.2131C46.9661 12.6754 46.3261 12.9065 45.5439 12.9065ZM47.8106 14.4531V29.3331H43.2506V14.4531H47.8106Z" fill="black"/>
<path d="M57.8085 25.0665L61.0352 14.4531H65.8885L60.6085 29.3331H54.9818L49.7018 14.4531H54.5818L57.8085 25.0665Z" fill="black"/>
<path d="M81.8345 21.6531C81.8345 22.0798 81.8079 22.5243 81.7545 22.9865H71.4345C71.5056 23.9109 71.799 24.622 72.3145 25.1198C72.8479 25.5998 73.4968 25.8398 74.2612 25.8398C75.399 25.8398 76.1901 25.3598 76.6345 24.3998H81.4879C81.239 25.3776 80.7857 26.2576 80.1279 27.0398C79.4879 27.822 78.679 28.4354 77.7012 28.8798C76.7234 29.3243 75.6301 29.5465 74.4212 29.5465C72.9634 29.5465 71.6656 29.2354 70.5279 28.6131C69.3901 27.9909 68.5012 27.102 67.8612 25.9465C67.2212 24.7909 66.9012 23.4398 66.9012 21.8931C66.9012 20.3465 67.2123 18.9954 67.8345 17.8398C68.4745 16.6843 69.3634 15.7954 70.5012 15.1731C71.639 14.5509 72.9456 14.2398 74.4212 14.2398C75.8612 14.2398 77.1412 14.542 78.2612 15.1465C79.3812 15.7509 80.2523 16.6131 80.8745 17.7331C81.5145 18.8531 81.8345 20.1598 81.8345 21.6531ZM77.1679 20.4531C77.1679 19.6709 76.9012 19.0487 76.3679 18.5865C75.8345 18.1243 75.1679 17.8931 74.3679 17.8931C73.6034 17.8931 72.9545 18.1154 72.4212 18.5598C71.9056 19.0043 71.5856 19.6354 71.4612 20.4531H77.1679Z" fill="black"/>
<path d="M98.7445 29.5198C96.9845 29.5198 95.3668 29.1109 93.8912 28.2931C92.4334 27.4754 91.269 26.3376 90.3979 24.8798C89.5445 23.4043 89.1179 21.7509 89.1179 19.9198C89.1179 18.0887 89.5445 16.4443 90.3979 14.9865C91.269 13.5287 92.4334 12.3909 93.8912 11.5731C95.3668 10.7554 96.9845 10.3465 98.7445 10.3465C100.505 10.3465 102.113 10.7554 103.571 11.5731C105.047 12.3909 106.202 13.5287 107.038 14.9865C107.891 16.4443 108.318 18.0887 108.318 19.9198C108.318 21.7509 107.891 23.4043 107.038 24.8798C106.185 26.3376 105.029 27.4754 103.571 28.2931C102.113 29.1109 100.505 29.5198 98.7445 29.5198ZM98.7445 25.3598C100.238 25.3598 101.429 24.862 102.318 23.8665C103.225 22.8709 103.678 21.5554 103.678 19.9198C103.678 18.2665 103.225 16.9509 102.318 15.9731C101.429 14.9776 100.238 14.4798 98.7445 14.4798C97.2334 14.4798 96.0245 14.9687 95.1179 15.9465C94.229 16.9243 93.7845 18.2487 93.7845 19.9198C93.7845 21.5731 94.229 22.8976 95.1179 23.8931C96.0245 24.8709 97.2334 25.3598 98.7445 25.3598Z" fill="black"/>
<path d="M119.921 14.2931C121.664 14.2931 123.05 14.862 124.081 15.9998C125.13 17.1198 125.655 18.6665 125.655 20.6398V29.3331H121.121V21.2531C121.121 20.2576 120.864 19.4843 120.348 18.9331C119.833 18.382 119.139 18.1065 118.268 18.1065C117.397 18.1065 116.704 18.382 116.188 18.9331C115.673 19.4843 115.415 20.2576 115.415 21.2531V29.3331H110.855V14.4531H115.415V16.4265C115.877 15.7687 116.499 15.2531 117.281 14.8798C118.064 14.4887 118.944 14.2931 119.921 14.2931Z" fill="black"/>
<path d="M146.366 5.78244V14.9818H137.192V6.97034C137.192 6.31193 136.656 5.77783 135.995 5.77783H132.889V27.8002C132.889 28.4586 133.425 28.9927 134.086 28.9927H137.192V18.7205H146.371V27.7956C146.362 28.454 146.889 28.9973 147.55 29.0065H147.568H150.674V6.97034C150.674 6.31193 150.138 5.77783 149.477 5.77783H146.366V5.78244ZM164.586 11.5378V22.5743C164.595 23.578 164.068 24.5127 163.199 25.0284C160.768 26.4281 158.249 24.6738 158.249 22.3717V12.7303C158.249 12.0719 157.713 11.5378 157.052 11.5378H153.946V22.7677C153.956 26.3866 156.895 29.315 160.528 29.3334H162.293C165.931 29.3242 168.88 26.3866 168.889 22.7631V12.7303C168.889 12.0719 168.353 11.5378 167.692 11.5378H164.586Z" fill="white"/>
<path d="M211.459 28.8889H214.667V13.1968C214.667 12.536 214.113 12 213.43 12H210.222V27.6829C210.217 28.3436 210.766 28.8843 211.449 28.8889H211.459Z" fill="white"/>
<path d="M214.639 8.84943C215.145 7.62746 214.565 6.22653 213.342 5.72036C212.12 5.2142 210.719 5.79447 210.212 7.01644C209.706 8.23841 210.286 9.63933 211.509 10.1455C212.731 10.6517 214.132 10.0714 214.639 8.84943Z" fill="white"/>
<path d="M179.778 11.1113C175.256 11.1113 171.556 14.3958 171.556 18.9902V21.4735C171.556 26.068 175.256 29.3336 179.778 29.3336C184.299 29.3336 188 26.068 188 21.4735V18.9902C188.005 14.3958 184.304 11.1113 179.778 11.1113V11.1113ZM183.664 21.7704C183.664 23.9428 181.916 25.3894 179.773 25.3894C177.631 25.3894 175.887 23.9428 175.887 21.7704V18.6698C175.887 16.4974 177.635 15.0508 179.773 15.0508C181.911 15.0508 183.664 16.4974 183.664 18.6698V21.7704Z" fill="white"/>
<path d="M199.338 11.5112C197.984 11.502 196.648 11.8061 195.429 12.3915V6.97151C195.429 6.31245 194.891 5.77783 194.227 5.77783H191.111V21.6459C191.111 26.1395 194.812 29.3334 199.333 29.3334C203.855 29.3334 207.556 26.1395 207.556 21.6459V19.2171C207.56 14.7235 203.869 11.5112 199.338 11.5112V11.5112ZM203.229 21.9363C203.229 24.0609 201.48 25.4758 199.338 25.4758C197.2 25.4758 195.452 24.0609 195.452 21.9363V18.9037C195.452 16.779 197.2 15.3641 199.338 15.3641C201.476 15.3641 203.229 16.779 203.229 18.9037V21.9363Z" fill="white"/>
</svg>
