<svg width="512" height="512" viewBox="0 0 512 512" fill="none" xmlns="http://www.w3.org/2000/svg">
<circle cx="256" cy="256" r="256" fill="#2A3069"/>
<path d="M300.493 169.236C300.493 111.75 272.486 62.2427 251.155 46.174C251.155 46.174 249.514 45.2687 249.684 47.5885C247.93 158.655 191.18 188.756 160.005 229.267C88.0346 322.851 154.912 425.43 223.148 444.385C261.17 455.022 214.321 425.6 208.267 363.532C200.855 288.62 300.493 231.361 300.493 169.236V169.236Z" fill="white"/>
<path d="M333.2 207.092C332.747 206.809 332.125 206.582 331.729 207.318C330.541 221.293 316.283 251.167 298.177 278.665C236.788 371.796 271.754 416.721 291.444 440.881C302.873 454.856 291.444 440.881 319.96 426.566C355.21 405.178 378.068 368.175 381.463 327.098C387.064 260.899 347.345 219.2 333.2 207.092V207.092Z" fill="white"/>
</svg>
