<svg width="40" height="40" viewBox="0 0 40 40" fill="none" xmlns="http://www.w3.org/2000/svg">
<g clip-path="url(#clip0)">
<path d="M34.2857 0H5.71429C2.55837 0 0 2.55837 0 5.71429V34.2857C0 37.4416 2.55837 40 5.71429 40H34.2857C37.4416 40 40 37.4416 40 34.2857V5.71429C40 2.55837 37.4416 0 34.2857 0Z" fill="#F9603E"/>
<path d="M20.5085 38.0036C30.1774 38.0036 38.0155 29.3257 38.0155 18.6208C38.0155 7.91601 30.1774 -0.761963 20.5085 -0.761963C10.8396 -0.761963 3.00146 7.91601 3.00146 18.6208C3.00146 29.3257 10.8396 38.0036 20.5085 38.0036Z" fill="white"/>
<path d="M8.16976 12.8205C7.8821 13.2945 7.56167 13.9466 7.33577 14.4596H7.33076L7.20358 14.7701C7.01252 15.2365 6.84896 15.7108 6.714 16.1922L6.53599 16.8272H7.19544H7.97445H7.98712H7.9998H8.01247H8.02514H8.03782H8.05049H8.06316H8.07583H8.08851H8.10118H8.11385H8.12653H8.1392H8.15187H8.16455H8.17722H8.18989H8.20257H8.21524H8.22791H8.24059H8.25326H8.26593H8.27861H8.29128H8.30395H8.31663H8.3293H8.34197H8.35464H8.36732H8.37999H8.39266H8.40534H8.41801H8.43068H8.44336H8.45603H8.4687H8.48138H8.49405H8.50672H8.5194H8.53207H8.54474H8.55742H8.57009H8.58276H8.59544H8.60811H8.62078H8.63346H8.64613H8.6588H8.67148H8.68415H8.69682H8.7095H8.72217H8.73484H8.74752H8.76019H8.77286H8.78554H8.79821H8.81088H8.82356H8.83623H8.8489H8.86158H8.87425H8.88692H8.8996H8.91227H8.92494H8.93762H8.95029H8.96296H8.97564H8.98831H9.00098H9.01366H9.02633H9.039H9.05168H9.06435H9.07702H9.0897H9.10237H9.11504H9.12772H9.14039H9.15306H9.16574H9.17841H9.19108H9.20376H9.21643H9.2291H9.24178H9.25445H9.26712H9.2798H9.29247H9.30514H9.31782H9.33049H9.34317H9.35584H9.36851H9.38119H9.39386H9.40653H9.41921H9.43188H9.44455H9.45723H9.4699H9.48257H9.49525H9.50792H9.52059H9.53327H9.54594H9.55861H9.57129H9.58396H9.59663H9.60931H9.62198H9.63465H9.64733H9.66H9.67268H9.68535H9.69802H9.7107H9.72337H9.73604H9.74872H9.76139H9.77406H9.78674H9.79941H9.81208H9.82476H9.83743H9.8501H9.86278H9.87545H9.88812H9.9008H9.91347H9.92615H9.93882H9.95149H9.96417H9.97684H9.98951H10.0022H10.0149H10.0275H10.0402H10.0529H10.0656H10.0782H10.0909H10.1036H10.1162H10.1289H10.1416H10.1543H10.1669H10.1796H10.1923H10.205H10.2176H10.2303H10.243H10.2557H10.2683H10.281H10.2937H10.3064H10.319H10.3317H10.3444H10.357H10.3697H10.3824H10.3951H10.4077H10.4204H10.4331H10.4458H10.4584H10.4711H10.4838H10.4965H10.5091H10.5218H10.5345H10.5472H10.5598H10.5725H10.5852H10.5978H10.6105H10.6232H10.6359H10.6485H10.6612H10.6739H10.6866H10.6992H10.7119H10.7246H10.7373H10.7499H10.7626H10.7753H10.7879H10.8006H10.8133H10.826H10.8386H10.8513H10.864H10.8767H10.8893H10.902H10.9147H10.9274H10.94H10.9527H10.9654H10.9781H10.9907H11.0034H11.0161H11.0287H11.0414H11.0541H11.0668H11.0794H11.0921H11.1048H11.1175H11.1301H11.1428H11.1555H11.1682H11.1808H11.1935H11.2062H11.2189H11.2315H11.2442H11.2569H11.2695H11.2822H11.2949H11.3076H11.3202H11.3329H11.3456H11.3583H11.3709H11.3836H11.3963H11.409H11.4216H11.4343H11.447H11.4597H11.4723H11.485H11.4977H11.5104H11.523H11.5357H11.5484H11.561H11.5737H11.5864H11.5991H11.6117H11.6244H11.6371H11.6498H11.6624H11.6751H11.6878H11.7005H11.7131H11.7258H11.7385H11.7512H11.7638H11.7765H11.7892H11.8018H11.8145H11.8272H11.8399H11.8525H11.8652H11.8779H11.8906H11.9032H11.9159H11.9286H11.9413H11.9539H11.9666H11.9793H11.992H12.0046H12.0173H12.03H12.0426H12.0553H12.068H12.0807H12.0933H12.106H12.1187H12.1314H12.144H12.1567H12.1694H12.1821H12.1947H12.2074H12.2201H12.2328H12.2454H12.2581H12.2708H12.2835H12.2961H12.3088H12.3215H12.3341H12.3468H12.3595H12.3722H12.3848H12.3975H12.4102H12.4229H12.4355H12.4482H12.4609H12.4736H12.4862H12.4989H12.5116H12.5243H12.5369H12.5496H12.5623H12.5749H12.5876H12.6003H12.613H12.6256H12.6383H12.651H12.6637H12.6763H12.689H12.7017H12.7144H12.727H12.7397H12.7524H12.7651H12.7777H12.7904H12.8031H12.8158H12.8284H12.8411H12.8538H12.8664H12.8791H12.8918H12.9045H12.9171H12.9298H12.9425H12.9552H12.9678H12.9805H12.9932H13.0059H13.0185H13.0312H13.0439H13.0566H13.0692H13.0819H13.0946H13.1073H13.1199H13.1326H13.1453H13.1579H13.1706H13.1833H13.196H13.2086H13.2213H13.234H13.2467H13.2593H13.272H13.2847H13.2974H13.31H13.3227H13.3354H13.3481H13.3607H13.3734H13.3861H13.3988H13.4114H13.4241H13.4368H13.4494H13.4621H13.4748H13.4875H13.5001H13.5128H13.5255H13.5382H13.5508H13.5635H13.5762H13.5889H13.6015H13.6142H13.6269H13.6396H13.6522H13.6649H13.6776H13.6902H13.7029H13.7156H13.7283H13.7409H13.7536H13.7663H13.779H13.7916H13.8043H13.817H13.8297H13.8423H13.855H13.8677H13.8804H13.893H13.9057H13.9184H13.9311H13.9437H13.9564H13.9691H13.9817H13.9944H14.0071H14.0198H14.0324H14.0451H14.0578H14.0705H14.0831H14.0958H14.1085H14.1212H14.1338H14.1465H14.1592H14.1719H14.1845H14.1972H14.2099H14.2226H14.2352H14.2479H14.2606H14.2732H14.2859H14.2986H14.3113H14.3239H14.3366H14.3493H14.362H14.3746H14.3873H14.4H14.4127H14.4253H14.438H14.4507H14.4634C20.9212 16.827 27.3794 16.827 33.8367 16.8276H34.4961L34.3182 16.1927C34.0421 15.2077 33.6503 14.2676 33.164 13.3743C32.8558 12.8081 32.5464 12.3348 32.1508 11.9194L32.1507 11.9193C31.753 11.5019 31.2827 11.1583 30.6677 10.832L30.6675 10.8319C29.6036 10.268 28.3125 9.93968 26.9299 9.93968H22.3524L23.431 -0.328717C33.6576 1.09025 41.5317 9.86753 41.5317 20.4848C41.5314 32.091 32.1224 41.4999 20.5159 41.4999C8.90933 41.4999 -0.5 32.091 -0.5 20.4844C-0.5 9.86716 7.37426 1.08986 17.6008 -0.329102L18.6793 9.93925H14.1019C12.7695 9.93925 11.5222 10.2439 10.4813 10.7711H10.4788L10.3691 10.8292C9.43378 11.3242 8.66367 12.007 8.16978 12.8205H8.16976ZM20.6228 36.0128C21.4671 36.0258 22.2749 35.6857 23.1733 35.0672C26.7231 32.6236 29.6345 29.2372 31.1976 25.1687C31.9272 23.27 32.3386 21.2682 32.4113 19.2451L32.43 18.7272H31.9117H9.42056H8.90236L8.92088 19.245C9.02666 22.2036 9.85751 25.078 11.319 27.6873H11.3191C12.9225 30.5491 15.2536 33.054 18.0979 35.0246C18.9819 35.6371 19.7815 35.9997 20.6228 36.0128Z" fill="#F9603E" stroke="#F9603E"/>
<path d="M22.8485 23.9213C22.8485 21.6257 21.73 19.6486 20.8782 19.0069C20.8782 19.0069 20.8127 18.9708 20.8194 19.0634C20.7494 23.4988 18.4831 24.7009 17.2381 26.3187C14.3641 30.0559 17.0348 34.1523 19.7597 34.9093C21.2781 35.334 19.4073 34.1591 19.1655 31.6804C18.8695 28.6889 22.8485 26.4023 22.8485 23.9213V23.9213Z" fill="#1B2143"/>
<path d="M24.1546 25.4329C24.1365 25.4216 24.1117 25.4125 24.0959 25.4419C24.0484 26 23.479 27.193 22.756 28.2911C20.3044 32.0102 21.7008 33.8043 22.4871 34.7691C22.9435 35.3272 22.4871 34.7691 23.6259 34.1974C25.0335 33.3433 25.9464 31.8656 26.082 30.2252C26.3056 27.5816 24.7195 25.9164 24.1546 25.4329V25.4329Z" fill="#2CA6E0"/>
</g>
<defs>
<clipPath id="clip0">
<rect width="40" height="40" fill="white"/>
</clipPath>
</defs>
</svg>
