<svg width="140" height="40" viewBox="0 0 140 40" fill="none" xmlns="http://www.w3.org/2000/svg">
<circle cx="19.9095" cy="19.9095" r="19.9095" fill="white"/>
<path fill-rule="evenodd" clip-rule="evenodd" d="M19.9162 39.814C8.91701 39.814 0 30.8974 0 19.8981C0 9.69526 7.6726 1.28595 17.5621 0.121216L18.6525 10.5024H13.9593C12.7388 10.5024 11.6059 10.7918 10.6788 11.2827C9.86201 11.715 9.20533 12.3031 8.79017 12.9869C8.47898 13.4996 8.11777 14.2602 7.92091 14.7418C7.73798 15.1884 7.58328 15.6426 7.45787 16.1034H8.26854C16.3038 16.1034 24.3401 16.1031 32.375 16.1038C32.1263 15.1895 31.7658 14.316 31.3135 13.4849C30.7583 12.4649 30.2413 11.8597 29.158 11.2852C28.2302 10.7932 27.0954 10.5027 25.8732 10.5027H21.1799L22.2704 0.121573C32.1599 1.28631 39.8325 9.69562 39.8325 19.8985C39.8321 30.8974 30.9155 39.814 19.9162 39.814ZM22.1585 33.1139C20.5529 34.2193 19.4864 34.1761 17.8972 33.075C15.3012 31.2764 13.1794 28.9941 11.722 26.3931C10.3829 24.0026 9.62835 21.3701 9.54296 18.6641H30.5686C30.5096 20.5219 30.1355 22.3616 29.4653 24.1058C28.0465 27.7987 25.3994 30.8831 22.1585 33.1139Z" fill="#F9603E"/>
<path fill-rule="evenodd" clip-rule="evenodd" d="M73.469 24.238C73.4873 24.4283 73.4849 24.6795 73.421 24.8389L73.0268 24.2816C71.5852 22.2171 69.7878 19.6307 68.2339 17.6422C66.0443 14.8402 63.8593 12.1856 61.6232 9.43778C61.0322 8.7114 60.7528 8.28871 60.219 7.56524C59.5334 6.63626 58.0217 4.7173 57.0074 4.22105C56.202 3.827 55.1334 3.77163 54.2176 4.08508C53.4093 4.36164 52.7646 4.91527 52.4394 5.57704C52.0837 6.30071 52.1626 7.70101 52.1683 8.60658C52.1818 10.789 52.2349 12.9272 52.2533 15.1185C52.3079 21.6437 52.2967 28.2061 52.2967 34.7414C52.2967 35.8948 52.3066 36.6785 52.9014 37.4366C54.4426 39.4006 57.9761 39.3446 58.3801 35.5248C58.5993 33.4527 58.5326 31.179 58.5326 29.0599C58.5326 24.6744 58.516 20.2859 58.5319 15.9009C58.7148 15.9822 59.8554 17.5235 60.0221 17.7221L64.3794 23.3748C65.2493 24.612 66.2894 25.8954 67.1966 27.2009C68.1048 28.5079 69.0175 29.7878 69.9316 31.1523C70.8123 32.4669 71.6421 33.8134 72.5324 35.1934C72.9742 35.8782 73.0352 36.0468 73.5029 36.7128C73.6287 36.892 73.7124 37.0477 73.838 37.209C74.2437 37.7298 75.1665 38.2219 76.1737 38.2454C77.2585 38.2709 78.0162 37.8307 78.5969 37.3395C79.3195 36.7282 79.3228 35.9708 79.3913 34.7785C79.5128 32.6649 79.6327 30.5104 79.6961 28.4054C79.8274 24.0532 80.0002 19.7579 80.042 15.3805C80.0511 14.437 80.1368 6.08585 79.9836 5.4879C79.8126 4.82061 79.0823 3.93052 78.5505 3.5615C77.8461 3.07289 76.8088 2.9144 75.8865 3.29478C75.1262 3.60833 74.4949 4.19894 74.1245 4.85287C73.5584 5.85209 73.6874 6.442 73.6874 7.73237C73.6874 12.7473 73.6016 17.5919 73.4989 22.5921C73.4897 23.0354 73.4128 23.8381 73.4693 24.2379L73.469 24.238Z" fill="#F9603E"/>
<path fill-rule="evenodd" clip-rule="evenodd" d="M95.3551 11.5419L97.2775 11.5233C100.781 11.6051 104.619 11.6352 108.157 11.6494L115.847 11.7046C116.953 11.7173 118.48 11.7998 119.518 11.7706L122.474 11.6833C122.477 19.7876 122.452 27.9257 122.527 36.0342C122.536 37.0181 122.797 37.6305 123.29 38.1588C123.685 38.5825 124.389 39.0412 125.152 39.2258C126.576 39.5703 128.486 39.0037 128.768 37.2509C128.992 35.8609 128.818 13.5965 128.812 11.6936C131.689 11.672 133.609 11.9199 136.529 11.4461C137.742 11.2493 138.556 10.8898 138.926 9.90428C139.623 8.04682 137.931 5.28349 135.859 5.29304L118.163 5.26289C111.539 5.14039 104.8 5.10059 98.1514 5.04874L96.928 5.00964C95.1254 5.01005 93.2943 5.06622 91.511 5.17245C90.6826 5.22189 90.1481 5.25294 89.4421 5.90546C89.0207 6.29488 88.5893 6.89112 88.345 7.61087C88.0826 8.38409 88.1516 9.26292 88.5486 9.8876C89.5439 11.4538 93.6301 11.5417 95.3551 11.5417V11.5419Z" fill="#F9603E"/>
<path fill-rule="evenodd" clip-rule="evenodd" d="M110.497 13.7498C109.182 14.0074 108.344 14.6298 107.851 15.6238C107.558 16.2154 107.599 19.0353 107.581 19.8627C107.522 22.6766 107.359 27.3439 106.342 29.8859C105.646 31.6233 104.826 32.5457 102.927 33.2874C100.288 34.3177 97.4284 33.593 96.1669 31.9432C95.4113 30.9551 95.175 30.1911 94.9009 28.709C94.4577 26.313 94.1829 22.8465 94.1742 20.3866C94.1709 19.4374 94.3096 16.6779 94.0178 15.9974C93.6397 15.1158 92.6401 14.2796 91.4954 14.0115C90.2419 13.7178 89.0807 14.4049 88.4952 15.4483C87.8942 16.519 87.8521 17.875 87.8112 19.2503C87.7686 20.6824 87.8055 22.2671 87.8872 23.6968C88.0495 26.5388 88.3247 28.9836 89.0949 31.4959C89.8174 33.8522 90.9705 36.0073 92.3893 37.2512C93.2046 37.9659 93.9873 38.5062 95.1699 38.9739C96.2419 39.3979 97.5522 39.7174 98.8008 39.8827C103.571 40.5141 109.039 38.5898 111.141 34.2973C113.172 30.1483 113.723 23.6239 114.011 19.0771C114.058 18.3389 114.058 17.6346 114.066 16.8904C114.076 15.9941 114.097 15.6395 113.621 15.0533C113.281 14.635 112.984 14.2774 112.394 14.0055C111.878 13.7681 111.133 13.6254 110.497 13.7498Z" fill="#F9603E"/>
<path fill-rule="evenodd" clip-rule="evenodd" d="M73.0267 25.6166L73.4209 26.174C73.4848 26.0145 73.4872 25.7633 73.4689 25.573C73.4063 25.7054 73.4204 25.9203 73.4012 26.1082C73.3958 26.1019 73.387 26.0831 73.3851 26.0888L73.0267 25.6165V25.6166Z" fill="#E3CC8B"/>
</svg>
